<?xml version="1.0" encoding="UTF-8" standalone="no"?>
<svg
   xmlns:dc="http://purl.org/dc/elements/1.1/"
   xmlns:cc="http://creativecommons.org/ns#"
   xmlns:rdf="http://www.w3.org/1999/02/22-rdf-syntax-ns#"
   xmlns:svg="http://www.w3.org/2000/svg"
   xmlns="http://www.w3.org/2000/svg"
   xmlns:sodipodi="http://sodipodi.sourceforge.net/DTD/sodipodi-0.dtd"
   xmlns:inkscape="http://www.inkscape.org/namespaces/inkscape"
   id="svg2"
   viewBox="0 0 24 24"
   height="24"
   width="24"
   version="1.1"
   inkscape:version="0.91 r13725"
   sodipodi:docname="weather_storm.svg">
  <sodipodi:namedview
     pagecolor="#ffffff"
     bordercolor="#666666"
     borderopacity="1"
     objecttolerance="10"
     gridtolerance="10"
     guidetolerance="10"
     inkscape:pageopacity="0"
     inkscape:pageshadow="2"
     inkscape:window-width="1864"
     inkscape:window-height="1012"
     id="namedview6"
     showgrid="false"
     inkscape:zoom="16"
     inkscape:cx="-10.363551"
     inkscape:cy="6.6717284"
     inkscape:window-x="-5"
     inkscape:window-y="26"
     inkscape:window-maximized="0"
     inkscape:current-layer="svg2" />
  <metadata
     id="metadata10">
    <rdf:RDF>
      <cc:Work
         rdf:about="">
        <dc:format>image/svg+xml</dc:format>
        <dc:type
           rdf:resource="http://purl.org/dc/dcmitype/StillImage" />
        <dc:title></dc:title>
      </cc:Work>
    </rdf:RDF>
  </metadata>
  <defs
     id="defs8" />
  <path
     inkscape:connector-curvature="0"
     id="path4213"
     d="M 21.016233,7.9976432 C 20.67673,6.2801606 19.163948,4.9870559 17.346611,4.9870559 c -1.442885,0 -2.696048,0.8187999 -3.320133,2.0120509 -1.502797,0.1647585 -2.671085,1.4329001 -2.671085,2.9806302 a 2.9956093,2.9956093 0 0 0 2.995609,2.99561 l 6.490487,0 a 2.496341,2.496341 0 0 0 2.496341,-2.496341 c 0,-1.3180676 -1.0235,-2.3865021 -2.321597,-2.4813628 z"
     style="fill:#e0e0e0;fill-opacity:1;fill-rule:evenodd;stroke:none;stroke-width:1px;stroke-linecap:butt;stroke-linejoin:miter;stroke-opacity:1" />
  <path
     style="fill:#bdbdbd;fill-opacity:1;fill-rule:evenodd;stroke:none;stroke-width:1px;stroke-linecap:butt;stroke-linejoin:miter;stroke-opacity:1"
     d="M 18.708839,10.777498 C 18.081964,7.6062527 15.288683,5.2185964 11.933058,5.2185964 c -2.6642184,0 -4.9781247,1.511875 -6.1304684,3.7151563 C 3.0277458,9.2379714 0.87055826,11.579529 0.87055826,14.437341 a 5.53125,5.53125 0 0 0 5.53125004,5.53125 l 11.9843747,0 a 4.609375,4.609375 0 0 0 4.609375,-4.609375 c 0,-2.43375 -1.889844,-4.406563 -4.286719,-4.581718 z"
     id="path4159"
     inkscape:connector-curvature="0" />
  <path
     style="fill:#e0e0e0;fill-opacity:1;fill-rule:evenodd;stroke:none;stroke-width:1px;stroke-linecap:butt;stroke-linejoin:miter;stroke-opacity:1"
     d="M 10.453733,7.3413932 C 10.11423,5.6239106 8.6014479,4.3308059 6.7841114,4.3308059 5.3412262,4.3308059 4.088063,5.1496058 3.4639777,6.3428568 1.9611809,6.5076153 0.79289327,7.7757569 0.79289327,9.3234874 A 2.9956093,2.9956093 0 0 0 3.7885017,12.319097 l 6.4904873,0 A 2.496341,2.496341 0 0 0 12.77533,9.822756 c 0,-1.3180676 -1.0235,-2.3865021 -2.321597,-2.4813628 z"
     id="path4288"
     inkscape:connector-curvature="0" />
  <path
     style="opacity:1;fill:#fafafa;fill-opacity:1;stroke:none;stroke-width:0.1;stroke-miterlimit:4;stroke-dasharray:none;stroke-opacity:1"
     d="m 12.039268,16.140522 a 0.42768545,0.42768545 0 0 1 -0.427686,-0.427685 0.42768545,0.42768545 0 0 1 0.427686,-0.427685 l 3.421484,0 a 0.85537088,0.85537088 0 0 0 0.85537,-0.855371 0.85537088,0.85537088 0 0 0 -0.85537,-0.855372 c -0.235227,0 -0.449071,0.09409 -0.603038,0.252335 -0.166796,0.175351 -0.440516,0.175351 -0.607312,0 -0.166798,-0.166798 -0.166798,-0.440516 0,-0.607313 0.31221,-0.307934 0.739896,-0.500392 1.21035,-0.500392 a 1.7107418,1.7107418 0 0 1 1.710741,1.710742 1.7107418,1.7107418 0 0 1 -1.710741,1.710741 l -3.421484,0 m 6.415281,0.855372 a 0.42768545,0.42768545 0 0 0 0.427685,-0.427686 0.42768545,0.42768545 0 0 0 -0.427685,-0.427686 c -0.119752,0 -0.226673,0.04705 -0.303656,0.124029 -0.166798,0.166798 -0.43624,0.166798 -0.603037,0 -0.16252,-0.166797 -0.16252,-0.436238 0,-0.603036 0.23095,-0.230951 0.551714,-0.376363 0.906693,-0.376363 a 1.2830564,1.2830564 0 0 1 1.283057,1.283056 1.2830564,1.2830564 0 0 1 -1.283057,1.283056 l -5.987596,0 a 0.42768545,0.42768545 0 0 1 -0.427685,-0.427685 0.42768545,0.42768545 0 0 1 0.427685,-0.427685 l 5.987596,0 m -0.427685,2.566112 -5.987596,0 a 0.42768545,0.42768545 0 0 1 -0.427686,-0.427685 0.42768545,0.42768545 0 0 1 0.427686,-0.427686 l 5.987596,0 a 1.2830564,1.2830564 0 0 1 1.283056,1.283056 1.2830564,1.2830564 0 0 1 -1.283056,1.283057 c -0.354979,0 -0.675743,-0.145413 -0.906694,-0.376363 -0.162519,-0.166798 -0.162519,-0.436239 0,-0.603037 0.166798,-0.166797 0.43624,-0.166797 0.603037,0 0.07698,0.07698 0.183905,0.124029 0.303657,0.124029 a 0.42768545,0.42768545 0 0 0 0.427685,-0.427686 0.42768545,0.42768545 0 0 0 -0.427685,-0.427685 z"
     id="path4294"
     inkscape:connector-curvature="0" />
  <path
     inkscape:connector-curvature="0"
     id="path4197"
     d="m 13.244443,9.1927319 a 0.28114688,0.28114688 0 0 1 -0.281147,-0.281146 0.28114688,0.28114688 0 0 1 0.281147,-0.281146 l 2.249176,0 A 0.56229375,0.56229375 0 0 0 16.055911,8.0681453 0.56229375,0.56229375 0 0 0 15.493619,7.5058511 c -0.154631,0 -0.295205,0.061851 -0.396419,0.165877 -0.109643,0.1152703 -0.289581,0.1152703 -0.399227,0 -0.109643,-0.1096473 -0.109643,-0.2895812 0,-0.3992283 0.205237,-0.2024261 0.486384,-0.3289419 0.795646,-0.3289419 a 1.1245875,1.1245875 0 0 1 1.124587,1.1245874 1.1245875,1.1245875 0 0 1 -1.124587,1.1245866 l -2.249176,0 m 4.217203,0.562295 a 0.28114688,0.28114688 0 0 0 0.281146,-0.281148 0.28114688,0.28114688 0 0 0 -0.281146,-0.281147 c -0.07872,0 -0.149008,0.03092 -0.199614,0.08153 -0.109644,0.109644 -0.286771,0.109644 -0.396417,0 -0.10684,-0.109644 -0.10684,-0.286769 0,-0.396418 0.151819,-0.151819 0.362679,-0.2474078 0.596031,-0.2474078 a 0.84344068,0.84344068 0 0 1 0.843441,0.8434398 0.84344068,0.84344068 0 0 1 -0.843441,0.8434401 l -3.936057,0 A 0.28114688,0.28114688 0 0 1 13.244443,10.03617 0.28114688,0.28114688 0 0 1 13.525589,9.7550229 l 3.936057,0 m -0.281147,1.6868811 -3.936056,0 a 0.28114688,0.28114688 0 0 1 -0.281147,-0.281146 0.28114688,0.28114688 0 0 1 0.281147,-0.281147 l 3.936056,0 a 0.84344068,0.84344068 0 0 1 0.843441,0.84344 0.84344068,0.84344068 0 0 1 -0.843441,0.843441 c -0.233351,0 -0.444212,-0.09559 -0.596031,-0.247409 -0.10684,-0.109644 -0.10684,-0.286769 0,-0.396418 0.109644,-0.109644 0.28677,-0.109644 0.396417,0 0.0506,0.05061 0.120895,0.08154 0.199614,0.08154 a 0.28114688,0.28114688 0 0 0 0.281147,-0.281147 0.28114688,0.28114688 0 0 0 -0.281147,-0.281148 z"
     style="opacity:1;fill:#fafafa;fill-opacity:1;stroke:none;stroke-width:0.1;stroke-miterlimit:4;stroke-dasharray:none;stroke-opacity:1" />
  <path
     style="opacity:1;fill:#000000;fill-opacity:0.15686275;stroke:none;stroke-width:0.1;stroke-miterlimit:4;stroke-dasharray:none;stroke-opacity:1"
     d="M 15.234867,8.194449 C 15.019271,7.978603 14.842874,7.795954 14.842874,7.7885624 c 0,-0.00739 0.04014,-0.018823 0.0892,-0.025404 0.05758,-0.00772 0.123858,-0.040361 0.186949,-0.092059 0.130946,-0.1073003 0.228366,-0.1448629 0.37571,-0.1448629 0.152308,0 0.261866,0.044155 0.372761,0.1502343 0.115616,0.1105949 0.167539,0.2299015 0.168133,0.3863298 7.67e-4,0.2019657 -0.07751,0.3484107 -0.247652,0.4633291 -0.04948,0.033422 -0.105978,0.060767 -0.125544,0.060767 -0.01957,0 -0.211972,-0.1766013 -0.427569,-0.3924474 z"
     id="path4207"
     inkscape:connector-curvature="0" />
  <path
     style="opacity:1;fill:#000000;fill-opacity:0.15686275;stroke:none;stroke-width:0.1;stroke-miterlimit:4;stroke-dasharray:none;stroke-opacity:1"
     d="M 6.1706771,15.924039 C 3.9471305,13.700467 2.1336294,11.875417 2.1406748,11.868371 c 0.00705,-0.007 0.1160065,0.04176 0.2421359,0.108446 0.1261294,0.06669 0.3337348,0.155829 0.4613455,0.198087 0.4700824,0.155664 0.2702317,0.149018 4.2647378,0.141821 l 3.590777,-0.0065 0.22097,-0.06206 c 0.42265,-0.118701 0.808244,-0.338088 1.102988,-0.627554 0.792449,-0.778258 0.986913,-1.9437846 0.489388,-2.933163 -0.05469,-0.1087504 -0.09444,-0.2027168 -0.08835,-0.2088143 0.01679,-0.016789 0.492084,0.460798 0.553828,0.5564985 0.02969,0.046016 0.08594,0.1031547 0.125012,0.1269757 0.06829,0.041639 0.117955,0.043301 1.286372,0.043067 0.99922,-2.01e-4 1.240194,-0.0061 1.355103,-0.033193 0.574763,-0.1354994 0.952155,-0.6797562 0.869698,-1.2542382 -0.01357,-0.094566 -0.04502,-0.2179125 -0.06987,-0.2741041 -0.02486,-0.056192 -0.0397,-0.1076612 -0.03298,-0.1143767 0.0067,-0.00672 0.262861,0.2384417 0.569213,0.5447935 l 0.557004,0.5570034 -0.167686,0 c -0.208192,0 -0.346826,0.040517 -0.500293,0.1462131 -0.137634,0.094792 -0.190045,0.1811547 -0.188098,0.3099425 0.0017,0.1156431 0.03381,0.1756525 0.122868,0.2299539 0.110054,0.067105 0.228476,0.056106 0.368716,-0.034245 0.07007,-0.045142 0.147952,-0.077305 0.18708,-0.077257 0.09719,1.193e-4 0.208018,0.076567 0.247304,0.1705913 0.04203,0.1006012 0.01463,0.2140616 -0.07118,0.2946882 l -0.05739,0.053919 -2.070817,0.011048 c -1.948053,0.010394 -2.074424,0.013412 -2.131653,0.050919 -0.207478,0.1359758 -0.179876,0.4276591 0.04946,0.5226511 0.04178,0.01731 0.66324,0.02257 2.147512,0.01818 l 2.088715,-0.0062 0.168642,-0.08336 c 0.235885,-0.116595 0.411348,-0.3288926 0.457226,-0.5532132 0.0076,-0.036977 0.02482,-0.070921 0.03834,-0.07543 0.04348,-0.014492 0.280228,0.7074308 0.342073,1.0430728 l 0.02654,0.144015 0.0818,0 c 0.04499,0 0.204856,0.02087 0.355258,0.04637 1.473052,0.249788 2.731057,1.182615 3.379361,2.505843 0.202891,0.414112 0.320114,0.771304 0.409899,1.249007 0.05597,0.297802 0.06667,1.013103 0.0203,1.357438 -0.177348,1.316986 -0.89535,2.472759 -2.000355,3.219987 -0.233959,0.158208 -0.604565,0.353644 -0.872835,0.460281 -0.172126,0.06842 -0.673179,0.220879 -0.725915,0.220879 -0.01465,0 -0.03753,-0.05899 -0.0516,-0.133037 -0.08615,-0.453325 -0.47807,-0.868424 -0.926212,-0.980994 -0.123985,-0.03114 -0.487969,-0.03502 -3.289936,-0.03502 -2.596101,0 -3.163101,0.0053 -3.221978,0.02985 -0.09826,0.04106 -0.207436,0.171678 -0.23799,0.28474 -0.0523,0.193531 0.05321,0.424202 0.230955,0.504918 0.08741,0.03969 0.210232,0.04133 3.1514,0.04191 2.035564,4.05e-4 3.087966,0.0083 3.142625,0.02343 0.0452,0.01255 0.113732,0.04938 0.152299,0.08183 0.06584,0.0554 0.150654,0.203655 0.151736,0.26523 3.87e-4,0.022 -0.837108,0.02762 -4.115119,0.02762 l -4.115606,0 -4.0428119,-4.042857 z M 18.82035,17.815754 c 0.213973,-0.07163 0.382349,-0.175549 0.542774,-0.334992 0.441579,-0.438877 0.508697,-1.115864 0.162018,-1.634193 -0.419555,-0.627286 -1.290167,-0.755403 -1.893344,-0.278618 -0.145499,0.11501 -0.210503,0.238224 -0.210746,0.399468 -1.99e-4,0.132285 0.02544,0.198063 0.114843,0.294664 0.0872,0.09421 0.176935,0.132223 0.312183,0.132223 0.128328,0 0.182076,-0.0223 0.35749,-0.148326 0.124318,-0.08932 0.228401,-0.112362 0.354814,-0.07856 0.121522,0.03249 0.273788,0.186304 0.294681,0.297673 0.03738,0.199241 -0.05104,0.391484 -0.217008,0.471827 l -0.09682,0.04687 -3.081091,4.87e-4 c -2.951864,4.64e-4 -3.084799,0.0022 -3.16948,0.04141 -0.172084,0.07967 -0.254117,0.209984 -0.254117,0.403672 0,0.128696 0.04219,0.230185 0.131111,0.315375 0.133535,0.127934 -0.03956,0.121966 3.382326,0.116624 2.992149,-0.0047 3.154883,-0.0069 3.270369,-0.0456 l 0,-1e-6 z m -3.001096,-1.703733 c 0.33188,-0.07034 0.595665,-0.214927 0.848525,-0.465105 0.275513,-0.272591 0.434992,-0.582276 0.493264,-0.957848 0.03247,-0.209258 0.03039,-0.337295 -0.0092,-0.564045 -0.116718,-0.669314 -0.633739,-1.216122 -1.297948,-1.372726 -0.07983,-0.01882 -0.245599,-0.03259 -0.39235,-0.03259 -0.381216,0 -0.650524,0.07824 -0.950175,0.276061 -0.347955,0.229705 -0.463935,0.45014 -0.36343,0.690743 0.127214,0.30454 0.470955,0.369509 0.731367,0.138233 0.215439,-0.191334 0.48297,-0.272109 0.731323,-0.220805 0.269728,0.05572 0.495806,0.230456 0.614005,0.474567 0.05651,0.116716 0.06406,0.156549 0.06476,0.342023 6.94e-4,0.183504 -0.0068,0.226152 -0.05962,0.338879 -0.08068,0.172228 -0.171747,0.283241 -0.299673,0.365331 -0.241602,0.155035 -0.102155,0.14498 -2.182818,0.157402 l -1.879991,0.01122 -0.08301,0.06333 c -0.266486,0.203305 -0.240248,0.589455 0.05049,0.743085 0.07719,0.04079 0.150327,0.04239 1.958442,0.04297 1.538137,4.86e-4 1.905005,-0.0051 2.025991,-0.03072 z m 1.670461,-3.596792 c 0.22556,-0.08301 0.403106,-0.262758 0.490948,-0.497046 0.03915,-0.104427 0.04656,-0.164214 0.04052,-0.327228 -0.0064,-0.172239 -0.01727,-0.219532 -0.07987,-0.346589 -0.118027,-0.239556 -0.342942,-0.410344 -0.606122,-0.460255 -0.06635,-0.01258 -0.93105,-0.0212 -2.125208,-0.02118 -1.873127,2.2e-5 -2.01862,0.0027 -2.089113,0.03867 -0.111043,0.05662 -0.159933,0.135295 -0.159933,0.257362 0,0.114902 0.03965,0.191272 0.130063,0.250528 0.05544,0.03633 0.200018,0.03973 2.13062,0.05003 l 2.071146,0.01105 0.06746,0.06464 c 0.165508,0.158589 0.07251,0.423565 -0.157112,0.447667 -0.08119,0.0085 -0.113155,-0.0017 -0.216077,-0.06885 -0.248158,-0.162 -0.486881,-0.05519 -0.486881,0.217838 0,0.08879 0.01179,0.11484 0.09079,0.200536 0.21006,0.227888 0.57475,0.302076 0.898773,0.182835 z"
     id="path4209"
     inkscape:connector-curvature="0" />
  <path
     style="opacity:1;fill:#000000;fill-opacity:0.15686275;stroke:none;stroke-width:0.1;stroke-miterlimit:4;stroke-dasharray:none;stroke-opacity:1"
     d="M 11.417826,7.6014407 C 11.201159,7.4877154 10.949245,7.4029741 10.72431,7.3681485 10.452633,7.326086 10.468998,7.3392868 10.412494,7.1166239 10.344033,6.8468386 10.203368,6.4985638 10.056999,6.2364482 9.990021,6.1165046 9.9410551,6.0125347 9.9481858,6.005404 c 0.013945,-0.013945 1.6906112,1.653117 1.6906112,1.6809271 0,0.027576 -0.025,0.017974 -0.220971,-0.08489 z"
     id="path4211"
     inkscape:connector-curvature="0" />
  <path
     style="opacity:1;fill:#000000;fill-opacity:0.15686275;stroke:none;stroke-width:0.1;stroke-miterlimit:4;stroke-dasharray:none;stroke-opacity:1"
     d="M 20.904446,11.495572 C 20.70994,11.36265 20.214096,11.116511 19.951321,11.022437 19.682629,10.926245 19.207737,10.815936 18.935967,10.78659 l -0.202854,-0.02191 -0.09987,-0.378937 C 18.578313,10.177332 18.484782,9.8749884 18.425396,9.7138726 18.366009,9.5527568 18.30767,9.3651707 18.295754,9.2970146 18.269477,9.1467179 18.212997,9.0331676 18.097244,8.8979191 17.968335,8.7472973 17.612425,8.155664 17.636339,8.1317501 c 0.02119,-0.021189 3.455607,3.3952489 3.455607,3.4375159 0,0.0417 -0.04388,0.02445 -0.1875,-0.07369 z"
     id="path4217"
     inkscape:connector-curvature="0" />
</svg>
