<?xml version="1.0" encoding="UTF-8" standalone="no"?>
<svg
   xmlns:dc="http://purl.org/dc/elements/1.1/"
   xmlns:cc="http://creativecommons.org/ns#"
   xmlns:rdf="http://www.w3.org/1999/02/22-rdf-syntax-ns#"
   xmlns:svg="http://www.w3.org/2000/svg"
   xmlns="http://www.w3.org/2000/svg"
   xmlns:sodipodi="http://sodipodi.sourceforge.net/DTD/sodipodi-0.dtd"
   xmlns:inkscape="http://www.inkscape.org/namespaces/inkscape"
   id="svg2"
   viewBox="0 0 24 24"
   height="24"
   width="24"
   version="1.1"
   inkscape:version="0.91 r13725"
   sodipodi:docname="weather_rain_n_snow.svg">
  <sodipodi:namedview
     pagecolor="#ffffff"
     bordercolor="#666666"
     borderopacity="1"
     objecttolerance="10"
     gridtolerance="10"
     guidetolerance="10"
     inkscape:pageopacity="0"
     inkscape:pageshadow="2"
     inkscape:window-width="1920"
     inkscape:window-height="1022"
     id="namedview6"
     showgrid="false"
     inkscape:zoom="32"
     inkscape:cx="6.9820614"
     inkscape:cy="4.6220228"
     inkscape:window-x="0"
     inkscape:window-y="26"
     inkscape:window-maximized="1"
     inkscape:current-layer="svg2" />
  <metadata
     id="metadata10">
    <rdf:RDF>
      <cc:Work
         rdf:about="">
        <dc:format>image/svg+xml</dc:format>
        <dc:type
           rdf:resource="http://purl.org/dc/dcmitype/StillImage" />
        <dc:title></dc:title>
      </cc:Work>
    </rdf:RDF>
  </metadata>
  <defs
     id="defs8" />
  <path
     style="fill:#bdbdbd;fill-opacity:1;fill-rule:evenodd;stroke:none;stroke-width:1px;stroke-linecap:butt;stroke-linejoin:miter;stroke-opacity:1"
     d="M 18.532062,7.7058922 C 17.905187,4.5346418 15.111906,2.1469855 11.756281,2.1469855 c -2.6642181,0 -4.9781244,1.511875 -6.1304681,3.7151563 C 2.8509691,6.1663605 0.69378157,8.5079232 0.69378157,11.365735 a 5.53125,5.53125 0 0 0 5.53125003,5.53125 l 11.9843744,0 a 4.609375,4.609375 0 0 0 4.609375,-4.609375 c 0,-2.4337498 -1.889844,-4.4065628 -4.286719,-4.5817178 z"
     id="path4159"
     inkscape:connector-curvature="0" />
  <path
     inkscape:connector-curvature="0"
     id="path4286"
     d="M 20.982906,4.3038796 C 20.585178,2.2918428 18.812948,0.77696619 16.683932,0.77696619 c -1.690345,0 -3.15843,0.95922691 -3.889548,2.35712461 -1.760532,0.1930151 -3.1291851,1.6786473 -3.1291851,3.491819 a 3.5093666,3.5093666 0 0 0 3.5093661,3.5093672 l 7.603628,0 a 2.9244721,2.9244721 0 0 0 2.924472,-2.9244718 c 0,-1.5441213 -1.199034,-2.795796 -2.719759,-2.9069256 z"
     style="fill:#fafafa;fill-opacity:1;fill-rule:evenodd;stroke:none;stroke-width:1px;stroke-linecap:butt;stroke-linejoin:miter;stroke-opacity:1" />
  <path
     style="opacity:1;fill:#000000;fill-opacity:0.15686275;stroke:none;stroke-width:0.1;stroke-miterlimit:4;stroke-dasharray:none;stroke-opacity:1"
     d="M 14.807197,13.204766 C 12.788034,11.18559 11.140508,9.5290192 11.146029,9.5234992 c 0.0055,-0.0055 0.07368,0.02933 0.151458,0.07744 0.419445,0.259458 0.877275,0.4293168 1.360628,0.5048048 0.169519,0.02647 0.412671,0.02806 4.296875,0.02806 3.331186,0 4.142542,-0.0039 4.25,-0.02061 0.267842,-0.04157 0.619936,-0.1474358 0.809072,-0.2432778 l 0.08038,-0.04073 0.07944,0.134491 c 0.319316,0.5406148 0.515689,1.1151658 0.602867,1.7638798 0.03726,0.277252 0.03764,0.846604 7.47e-4,1.117187 -0.11586,0.849765 -0.417346,1.583219 -0.926208,2.253277 -0.152439,0.200727 -0.60523,0.657322 -0.802549,0.809292 -0.564968,0.435122 -1.2174,0.73997 -1.885626,0.881058 -0.192725,0.04069 -0.529917,0.08762 -0.629545,0.08762 -0.05257,0 -0.228254,-0.173088 -3.726372,-3.67123 z"
     id="path4294"
     inkscape:connector-curvature="0" />
  <rect
     style="opacity:1;fill:#2196f3;fill-opacity:1;stroke:none;stroke-width:0.1;stroke-miterlimit:4;stroke-dasharray:none;stroke-opacity:1"
     id="rect4315"
     width="1.1048543"
     height="6.2313786"
     x="11.174475"
     y="14.951349"
     transform="matrix(0.96592583,0.25881905,-0.25881905,0.96592583,0,0)"
     ry="0.55242717" />
  <rect
     style="opacity:1;fill:#2196f3;fill-opacity:1;stroke:none;stroke-width:0.1;stroke-miterlimit:4;stroke-dasharray:none;stroke-opacity:1"
     id="rect4319"
     width="1.1048543"
     height="6.2313786"
     x="15.038177"
     y="13.916073"
     transform="matrix(0.96592583,0.25881905,-0.25881905,0.96592583,0,0)"
     ry="0.55242717" />
  <rect
     style="opacity:1;fill:#2196f3;fill-opacity:1;stroke:none;stroke-width:0.1;stroke-miterlimit:4;stroke-dasharray:none;stroke-opacity:1"
     id="rect4323"
     width="1.1048543"
     height="6.2313786"
     x="18.90188"
     y="12.880796"
     transform="matrix(0.96592583,0.25881905,-0.25881905,0.96592583,0,0)"
     ry="0.55242717" />
  <path
     inkscape:connector-curvature="0"
     style="opacity:1;fill:#ffffff;fill-opacity:1;stroke:none;stroke-width:0.1;stroke-miterlimit:4;stroke-dasharray:none;stroke-opacity:1"
     d="m 8.943666,17.871093 c -0.00718,0 -0.01296,0.0058 -0.01296,0.01296 l 0,0.330106 -0.285911,-0.165053 c -0.00622,-0.0036 -0.014089,-0.0015 -0.017676,0.0048 l -0.2047588,0.354698 c -0.00359,0.0062 -0.0015,0.01409 0.00472,0.01768 l 0.2858649,0.165053 -0.2858649,0.165052 c -0.00622,0.0036 -0.00831,0.01151 -0.00472,0.01772 l 0.2047588,0.354652 c 0.00359,0.0062 0.011463,0.0084 0.017676,0.0048 l 0.285911,-0.165052 0,0.330105 c 0,0.0072 0.00578,0.01296 0.01296,0.01296 l 0.4095627,0 c 0.00718,0 0.012914,-0.0058 0.012914,-0.01296 l 0,-0.330105 0.285911,0.165052 c 0.00622,0.0036 0.014091,0.0015 0.017679,-0.0048 l 0.2048048,-0.354652 c 0.0036,-0.0062 0.0015,-0.01414 -0.0048,-0.01772 L 9.5839089,18.591297 9.8697745,18.426245 c 0.0062,-0.0036 0.0084,-0.01146 0.0048,-0.01768 L 9.6697323,18.053869 c -0.00359,-0.0062 -0.011463,-0.0084 -0.017679,-0.0048 l -0.285911,0.165053 0,-0.330105 c 0,-0.0072 -0.00574,-0.01296 -0.012914,-0.01296 l -0.4095627,0 z"
     id="rect4695" />
  <path
     id="path4721"
     d="m 8.4983535,19.566406 c -0.00718,0 -0.01296,0.0058 -0.01296,0.01296 l 0,0.330106 -0.285911,-0.165053 c -0.00622,-0.0036 -0.014089,-0.0015 -0.017676,0.0048 l -0.2047588,0.354698 c -0.00359,0.0062 -0.0015,0.01409 0.00472,0.01768 l 0.2858649,0.165053 -0.2858649,0.165052 c -0.00622,0.0036 -0.00831,0.01151 -0.00472,0.01772 l 0.2047588,0.354652 c 0.00359,0.0062 0.011463,0.0084 0.017676,0.0048 l 0.285911,-0.165052 0,0.330105 c 0,0.0072 0.00578,0.01296 0.01296,0.01296 l 0.4095627,0 c 0.00718,0 0.012914,-0.0058 0.012914,-0.01296 l 0,-0.330105 0.285911,0.165052 c 0.00622,0.0036 0.014091,0.0015 0.017679,-0.0048 L 9.429225,20.469422 c 0.0036,-0.0062 0.0015,-0.01414 -0.0048,-0.01772 L 9.1385964,20.28661 9.424462,20.121558 c 0.0062,-0.0036 0.0084,-0.01146 0.0048,-0.01768 L 9.2244198,19.749182 c -0.00359,-0.0062 -0.011463,-0.0084 -0.017679,-0.0048 l -0.285911,0.165053 0,-0.330105 c 0,-0.0072 -0.00574,-0.01296 -0.012914,-0.01296 l -0.4095627,0 z"
     style="opacity:1;fill:#ffffff;fill-opacity:1;stroke:none;stroke-width:0.1;stroke-miterlimit:4;stroke-dasharray:none;stroke-opacity:1"
     inkscape:connector-curvature="0" />
  <path
     inkscape:connector-curvature="0"
     style="opacity:1;fill:#ffffff;fill-opacity:1;stroke:none;stroke-width:0.1;stroke-miterlimit:4;stroke-dasharray:none;stroke-opacity:1"
     d="m 8.037416,21.285156 c -0.00718,0 -0.01296,0.0058 -0.01296,0.01296 l 0,0.330106 -0.285911,-0.165053 c -0.00622,-0.0036 -0.014089,-0.0015 -0.017676,0.0048 l -0.2047588,0.354698 c -0.00359,0.0062 -0.0015,0.01409 0.00472,0.01768 L 7.8066951,22.0054 7.5208302,22.170452 c -0.00622,0.0036 -0.00831,0.01151 -0.00472,0.01772 l 0.2047588,0.354652 c 0.00359,0.0062 0.011463,0.0084 0.017676,0.0048 l 0.285911,-0.165052 0,0.330105 c 0,0.0072 0.00578,0.01296 0.01296,0.01296 l 0.4095627,0 c 0.00718,0 0.012914,-0.0058 0.012914,-0.01296 l 0,-0.330105 0.285911,0.165052 c 0.00622,0.0036 0.014091,0.0015 0.017679,-0.0048 l 0.2048048,-0.354652 c 0.0036,-0.0062 0.0015,-0.01414 -0.0048,-0.01772 L 8.6776589,22.00536 8.9635245,21.840308 c 0.0062,-0.0036 0.0084,-0.01146 0.0048,-0.01768 L 8.7634823,21.467932 c -0.00359,-0.0062 -0.011463,-0.0084 -0.017679,-0.0048 l -0.285911,0.165053 0,-0.330105 c 0,-0.0072 -0.00574,-0.01296 -0.012914,-0.01296 l -0.4095627,0 z"
     id="path4723" />
  <path
     id="path4738"
     d="m 12.943666,17.871093 c -0.0072,0 -0.01296,0.0058 -0.01296,0.01296 l 0,0.330106 -0.285911,-0.165053 c -0.0062,-0.0036 -0.01409,-0.0015 -0.01768,0.0048 l -0.204759,0.354698 c -0.0036,0.0062 -0.0015,0.01409 0.0047,0.01768 l 0.285865,0.165053 -0.285865,0.165052 c -0.0062,0.0036 -0.0083,0.01151 -0.0047,0.01772 l 0.204759,0.354652 c 0.0036,0.0062 0.01146,0.0084 0.01768,0.0048 l 0.285911,-0.165052 0,0.330105 c 0,0.0072 0.0058,0.01296 0.01296,0.01296 l 0.409563,0 c 0.0072,0 0.01291,-0.0058 0.01291,-0.01296 l 0,-0.330105 0.285911,0.165052 c 0.0062,0.0036 0.01409,0.0015 0.01768,-0.0048 l 0.204805,-0.354652 c 0.0036,-0.0062 0.0015,-0.01414 -0.0048,-0.01772 l -0.285829,-0.165092 0.285866,-0.165052 c 0.0062,-0.0036 0.0084,-0.01146 0.0048,-0.01768 l -0.204843,-0.354696 c -0.0036,-0.0062 -0.01146,-0.0084 -0.01768,-0.0048 l -0.285911,0.165053 0,-0.330105 c 0,-0.0072 -0.0057,-0.01296 -0.01291,-0.01296 l -0.409562,0 z"
     style="opacity:1;fill:#ffffff;fill-opacity:1;stroke:none;stroke-width:0.1;stroke-miterlimit:4;stroke-dasharray:none;stroke-opacity:1"
     inkscape:connector-curvature="0" />
  <path
     inkscape:connector-curvature="0"
     style="opacity:1;fill:#ffffff;fill-opacity:1;stroke:none;stroke-width:0.1;stroke-miterlimit:4;stroke-dasharray:none;stroke-opacity:1"
     d="m 12.498354,19.566406 c -0.0072,0 -0.01296,0.0058 -0.01296,0.01296 l 0,0.330106 -0.285911,-0.165053 c -0.0062,-0.0036 -0.01409,-0.0015 -0.01768,0.0048 l -0.204759,0.354698 c -0.0036,0.0062 -0.0015,0.01409 0.0047,0.01768 l 0.285865,0.165053 -0.285865,0.165052 c -0.0062,0.0036 -0.0083,0.01151 -0.0047,0.01772 l 0.204759,0.354652 c 0.0036,0.0062 0.01146,0.0084 0.01768,0.0048 l 0.285911,-0.165052 0,0.330105 c 0,0.0072 0.0058,0.01296 0.01296,0.01296 l 0.409562,0 c 0.0072,0 0.01291,-0.0058 0.01291,-0.01296 l 0,-0.330105 0.285911,0.165052 c 0.0062,0.0036 0.01409,0.0015 0.01768,-0.0048 l 0.204805,-0.354652 c 0.0036,-0.0062 0.0015,-0.01414 -0.0048,-0.01772 l -0.285829,-0.165092 0.285866,-0.165052 c 0.0062,-0.0036 0.0084,-0.01146 0.0048,-0.01768 L 13.22442,19.749182 c -0.0036,-0.0062 -0.01146,-0.0084 -0.01768,-0.0048 l -0.285911,0.165053 0,-0.330105 c 0,-0.0072 -0.0057,-0.01296 -0.01291,-0.01296 l -0.409563,0 z"
     id="path4740" />
  <path
     id="path4742"
     d="m 12.037416,21.285156 c -0.0072,0 -0.01296,0.0058 -0.01296,0.01296 l 0,0.330106 -0.285911,-0.165053 c -0.0062,-0.0036 -0.01409,-0.0015 -0.01768,0.0048 l -0.204759,0.354698 c -0.0036,0.0062 -0.0015,0.01409 0.0047,0.01768 l 0.285865,0.165053 -0.285865,0.165052 c -0.0062,0.0036 -0.0083,0.01151 -0.0047,0.01772 l 0.204759,0.354652 c 0.0036,0.0062 0.01146,0.0084 0.01768,0.0048 l 0.285911,-0.165052 0,0.330105 c 0,0.0072 0.0058,0.01296 0.01296,0.01296 l 0.409563,0 c 0.0072,0 0.01291,-0.0058 0.01291,-0.01296 l 0,-0.330105 0.285911,0.165052 c 0.0062,0.0036 0.01409,0.0015 0.01768,-0.0048 l 0.204804,-0.354652 c 0.0036,-0.0062 0.0015,-0.01414 -0.0048,-0.01772 l -0.285828,-0.165092 0.285866,-0.165052 c 0.0062,-0.0036 0.0084,-0.01146 0.0048,-0.01768 l -0.204843,-0.354696 c -0.0036,-0.0062 -0.01146,-0.0084 -0.01768,-0.0048 l -0.285911,0.165053 0,-0.330105 c 0,-0.0072 -0.0057,-0.01296 -0.01291,-0.01296 l -0.409562,0 z"
     style="opacity:1;fill:#ffffff;fill-opacity:1;stroke:none;stroke-width:0.1;stroke-miterlimit:4;stroke-dasharray:none;stroke-opacity:1"
     inkscape:connector-curvature="0" />
  <path
     inkscape:connector-curvature="0"
     style="opacity:1;fill:#ffffff;fill-opacity:1;stroke:none;stroke-width:0.1;stroke-miterlimit:4;stroke-dasharray:none;stroke-opacity:1"
     d="m 16.943666,17.871093 c -0.0072,0 -0.01296,0.0058 -0.01296,0.01296 l 0,0.330106 -0.285911,-0.165053 c -0.0062,-0.0036 -0.01409,-0.0015 -0.01768,0.0048 l -0.204759,0.354698 c -0.0036,0.0062 -0.0015,0.01409 0.0047,0.01768 l 0.285865,0.165053 -0.285865,0.165052 c -0.0062,0.0036 -0.0083,0.01151 -0.0047,0.01772 l 0.204759,0.354652 c 0.0036,0.0062 0.01146,0.0084 0.01768,0.0048 l 0.285911,-0.165052 0,0.330105 c 0,0.0072 0.0058,0.01296 0.01296,0.01296 l 0.409563,0 c 0.0072,0 0.01291,-0.0058 0.01291,-0.01296 l 0,-0.330105 0.285911,0.165052 c 0.0062,0.0036 0.01409,0.0015 0.01768,-0.0048 l 0.204805,-0.354652 c 0.0036,-0.0062 0.0015,-0.01414 -0.0048,-0.01772 l -0.285829,-0.165092 0.285866,-0.165052 c 0.0062,-0.0036 0.0084,-0.01146 0.0048,-0.01768 l -0.204843,-0.354696 c -0.0036,-0.0062 -0.01146,-0.0084 -0.01768,-0.0048 l -0.285911,0.165053 0,-0.330105 c 0,-0.0072 -0.0057,-0.01296 -0.01291,-0.01296 l -0.409562,0 z"
     id="path4744" />
  <path
     id="path4746"
     d="m 16.498354,19.566406 c -0.0072,0 -0.01296,0.0058 -0.01296,0.01296 l 0,0.330106 -0.285911,-0.165053 c -0.0062,-0.0036 -0.01409,-0.0015 -0.01768,0.0048 l -0.204759,0.354698 c -0.0036,0.0062 -0.0015,0.01409 0.0047,0.01768 l 0.285865,0.165053 -0.285865,0.165052 c -0.0062,0.0036 -0.0083,0.01151 -0.0047,0.01772 l 0.204759,0.354652 c 0.0036,0.0062 0.01146,0.0084 0.01768,0.0048 l 0.285911,-0.165052 0,0.330105 c 0,0.0072 0.0058,0.01296 0.01296,0.01296 l 0.409562,0 c 0.0072,0 0.01291,-0.0058 0.01291,-0.01296 l 0,-0.330105 0.285911,0.165052 c 0.0062,0.0036 0.01409,0.0015 0.01768,-0.0048 l 0.204805,-0.354652 c 0.0036,-0.0062 0.0015,-0.01414 -0.0048,-0.01772 l -0.285829,-0.165092 0.285866,-0.165052 c 0.0062,-0.0036 0.0084,-0.01146 0.0048,-0.01768 L 17.22442,19.749182 c -0.0036,-0.0062 -0.01146,-0.0084 -0.01768,-0.0048 l -0.285911,0.165053 0,-0.330105 c 0,-0.0072 -0.0057,-0.01296 -0.01291,-0.01296 l -0.409563,0 z"
     style="opacity:1;fill:#ffffff;fill-opacity:1;stroke:none;stroke-width:0.1;stroke-miterlimit:4;stroke-dasharray:none;stroke-opacity:1"
     inkscape:connector-curvature="0" />
  <path
     inkscape:connector-curvature="0"
     style="opacity:1;fill:#ffffff;fill-opacity:1;stroke:none;stroke-width:0.1;stroke-miterlimit:4;stroke-dasharray:none;stroke-opacity:1"
     d="m 16.037416,21.285156 c -0.0072,0 -0.01296,0.0058 -0.01296,0.01296 l 0,0.330106 -0.285911,-0.165053 c -0.0062,-0.0036 -0.01409,-0.0015 -0.01768,0.0048 l -0.204759,0.354698 c -0.0036,0.0062 -0.0015,0.01409 0.0047,0.01768 l 0.285865,0.165053 -0.285865,0.165052 c -0.0062,0.0036 -0.0083,0.01151 -0.0047,0.01772 l 0.204759,0.354652 c 0.0036,0.0062 0.01146,0.0084 0.01768,0.0048 l 0.285911,-0.165052 0,0.330105 c 0,0.0072 0.0058,0.01296 0.01296,0.01296 l 0.409563,0 c 0.0072,0 0.01291,-0.0058 0.01291,-0.01296 l 0,-0.330105 0.285911,0.165052 c 0.0062,0.0036 0.01409,0.0015 0.01768,-0.0048 l 0.204804,-0.354652 c 0.0036,-0.0062 0.0015,-0.01414 -0.0048,-0.01772 l -0.285828,-0.165092 0.285866,-0.165052 c 0.0062,-0.0036 0.0084,-0.01146 0.0048,-0.01768 l -0.204843,-0.354696 c -0.0036,-0.0062 -0.01146,-0.0084 -0.01768,-0.0048 l -0.285911,0.165053 0,-0.330105 c 0,-0.0072 -0.0057,-0.01296 -0.01291,-0.01296 l -0.409562,0 z"
     id="path4748" />
  <path
     style="opacity:1;fill:#000000;fill-opacity:0.15686275;stroke:none;stroke-width:0.1;stroke-miterlimit:4;stroke-dasharray:none;stroke-opacity:1"
     d="M 6.8330644,19.791256 6.3899428,19.346987 6.5932764,18.590162 c 0.1362525,-0.507143 0.2148641,-0.780518 0.2382841,-0.828641 0.082953,-0.170449 0.2887038,-0.298703 0.478302,-0.298147 0.1372465,4.02e-4 0.2904347,0.06401 0.3873959,0.160847 0.067115,0.06703 0.1055405,0.129928 0.1381389,0.22611 0.020786,0.06133 0.023343,0.08697 0.018136,0.181879 -0.00548,0.09985 -0.03304,0.210714 -0.286272,1.151468 -0.154116,0.572541 -0.2826554,1.043427 -0.2856431,1.046415 -0.00299,0.003 -0.2048368,-0.194489 -0.4485537,-0.438837 z"
     id="path4754"
     inkscape:connector-curvature="0" />
  <path
     style="opacity:1;fill:#000000;fill-opacity:0.15686275;stroke:none;stroke-width:0.1;stroke-miterlimit:4;stroke-dasharray:none;stroke-opacity:1"
     d="m 8.4844917,20.828567 -0.00304,-0.170178 -0.1420489,0.08298 c -0.1175992,0.0687 -0.1443892,0.08039 -0.1556461,0.06798 -0.010055,-0.01109 -0.1406399,-0.233695 -0.2009553,-0.342562 -0.00218,-0.0039 0.06049,-0.04371 0.139267,-0.08839 0.078777,-0.04468 0.1417499,-0.08615 0.1399395,-0.09217 -0.00181,-0.006 -0.065043,-0.04702 -0.1405161,-0.09114 -0.075473,-0.04411 -0.1359941,-0.08514 -0.1344903,-0.09118 0.0041,-0.01646 0.1811698,-0.323812 0.1960775,-0.340344 0.010364,-0.0115 0.041031,0.0019 0.1556402,0.06775 l 0.1427325,0.08207 0.00304,-0.169953 0.00304,-0.169954 0.2148855,0 0.2148854,0 0.00304,0.170906 0.00304,0.170906 0.1418098,-0.08259 c 0.077995,-0.04542 0.1458634,-0.08008 0.1508179,-0.07702 0.010813,0.0067 0.1956597,0.325252 0.2008949,0.346226 0.00222,0.0089 -0.05074,0.0461 -0.1344449,0.09446 -0.075959,0.04388 -0.1376206,0.08452 -0.1370263,0.09029 5.945e-4,0.0058 0.062742,0.04654 0.1381068,0.09059 0.077566,0.04534 0.1354655,0.08609 0.1334293,0.09391 -0.00613,0.02357 -0.1948455,0.350009 -0.2025762,0.350419 -0.00401,2.13e-4 -0.071134,-0.03632 -0.1491553,-0.08118 l -0.141856,-0.08157 -0.00304,0.169954 -0.00304,0.169953 -0.2148854,0 -0.2148855,0 -0.00304,-0.170177 z"
     id="path4756"
     inkscape:connector-curvature="0" />
  <path
     style="opacity:1;fill:#000000;fill-opacity:0.15686275;stroke:none;stroke-width:0.1;stroke-miterlimit:4;stroke-dasharray:none;stroke-opacity:1"
     d="m 8.9399635,19.137065 c 0,-0.09419 -0.00373,-0.17121 -0.00829,-0.171158 -0.00456,5.6e-5 -0.072589,0.03715 -0.1511807,0.08243 -0.1289376,0.07429 -0.1441295,0.08049 -0.1555406,0.06343 -0.030983,-0.04631 -0.1932253,-0.33321 -0.1932253,-0.341691 0,-0.0052 0.064189,-0.0465 0.1426416,-0.09181 0.078453,-0.0453 0.1405033,-0.08583 0.1378899,-0.09006 -0.00261,-0.0042 -0.066802,-0.04318 -0.1426415,-0.08656 -0.075839,-0.04338 -0.13789,-0.08317 -0.13789,-0.08842 0,-0.0069 0.1904022,-0.345254 0.2030969,-0.360927 8.915e-4,-0.0011 0.065215,0.03494 0.1429419,0.0801 0.077727,0.04516 0.1460174,0.0821 0.1517575,0.0821 0.0061,0 0.010437,-0.07114 0.010437,-0.171252 l 0,-0.171252 0.2099224,0 0.2099223,0 0,0.172434 c 0,0.159675 0.00143,0.171887 0.019335,0.165038 0.010634,-0.0041 0.075098,-0.0394 0.1432527,-0.07852 0.068155,-0.03912 0.1286891,-0.07112 0.1345208,-0.07112 0.00913,0 0.2111246,0.340886 0.2111246,0.356297 0,0.0031 -0.064526,0.04227 -0.1433907,0.08707 -0.078865,0.04479 -0.1434988,0.08407 -0.143631,0.08728 -1.326e-4,0.0032 0.058179,0.03944 0.12958,0.0805 0.071401,0.04106 0.13696,0.07908 0.1456862,0.08447 0.012783,0.0079 -0.00417,0.04485 -0.087277,0.190186 -0.056729,0.09921 -0.1042737,0.181839 -0.1056561,0.183622 -0.00138,0.0018 -0.063262,-0.03211 -0.1375109,-0.07533 -0.074249,-0.04322 -0.1419807,-0.08125 -0.1505156,-0.08453 -0.012916,-0.005 -0.015518,0.02295 -0.015518,0.16648 l 0,0.172434 -0.2099223,0 -0.2099224,0 0,-0.171252 z"
     id="path4758"
     inkscape:connector-curvature="0" />
  <path
     style="opacity:1;fill:#000000;fill-opacity:0.15686275;stroke:none;stroke-width:0.1;stroke-miterlimit:4;stroke-dasharray:none;stroke-opacity:1"
     d="m 9.9634634,22.922832 -0.418335,-0.418575 0.6255676,-2.33546 c 0.442978,-1.653792 0.635546,-2.355866 0.659755,-2.405371 0.08382,-0.17141 0.290064,-0.300606 0.478984,-0.300052 0.302731,8.88e-4 0.547344,0.244373 0.547344,0.54482 0,0.0837 -0.0449,0.257405 -0.674468,2.609055 -0.461997,1.725731 -0.684736,2.540272 -0.707063,2.58568 -0.01793,0.03646 -0.04629,0.08253 -0.06302,0.102384 l -0.03043,0.03609 -0.4183346,-0.418574 z"
     id="path4760"
     inkscape:connector-curvature="0" />
  <path
     style="opacity:1;fill:#000000;fill-opacity:0.15686275;stroke:none;stroke-width:0.1;stroke-miterlimit:4;stroke-dasharray:none;stroke-opacity:1"
     d="m 12.939536,19.135883 c 0,-0.142191 -0.0027,-0.171407 -0.01527,-0.166576 -0.0084,0.0032 -0.07653,0.04086 -0.151396,0.08365 -0.07487,0.04278 -0.137106,0.07672 -0.138303,0.07542 -0.0104,-0.01129 -0.203266,-0.351452 -0.203266,-0.358499 0,-0.0051 0.06456,-0.04635 0.14347,-0.09172 0.07891,-0.04536 0.143412,-0.08497 0.143342,-0.088 -7.1e-5,-0.003 -0.06463,-0.04186 -0.14347,-0.08627 -0.07884,-0.04441 -0.143342,-0.08514 -0.143342,-0.09051 0,-0.0069 0.185981,-0.337051 0.203516,-0.361269 8.74e-4,-0.0012 0.06519,0.03484 0.142924,0.0801 0.07774,0.04526 0.145938,0.0823 0.151564,0.0823 0.0058,0 0.01023,-0.0736 0.01023,-0.171252 l 0,-0.171252 0.209923,0 0.209922,0 0,0.172434 c 0,0.159675 0.0014,0.171887 0.01933,0.165038 0.01063,-0.0041 0.0751,-0.0394 0.143253,-0.07852 0.06815,-0.03912 0.128572,-0.07112 0.134261,-0.07112 0.0092,0 0.1896,0.301674 0.206014,0.344447 0.0048,0.01255 -0.03029,0.03773 -0.137473,0.0986 -0.07917,0.04496 -0.144047,0.08437 -0.144179,0.08758 -1.32e-4,0.0032 0.06437,0.04298 0.143347,0.08839 0.07897,0.04541 0.143606,0.08551 0.143631,0.08911 3.3e-5,0.0052 -0.194403,0.348634 -0.204497,0.361247 -0.0014,0.0018 -0.06251,-0.03183 -0.135797,-0.07464 -0.07328,-0.0428 -0.141041,-0.08082 -0.15057,-0.08447 -0.01528,-0.0059 -0.01732,0.01372 -0.01732,0.165787 l 0,0.172434 -0.209922,0 -0.209923,0 0,-0.172434 z"
     id="path4762"
     inkscape:connector-curvature="0" />
  <path
     style="opacity:1;fill:#000000;fill-opacity:0.15686275;stroke:none;stroke-width:0.1;stroke-miterlimit:4;stroke-dasharray:none;stroke-opacity:1"
     d="m 12.484064,20.828966 -0.003,-0.169778 -0.140973,0.08198 c -0.07754,0.04509 -0.14523,0.07935 -0.150433,0.07613 -0.0052,-0.0032 -0.0443,-0.06687 -0.08688,-0.141457 -0.04258,-0.07459 -0.08814,-0.153655 -0.101227,-0.175709 l -0.0238,-0.0401 0.143583,-0.08143 c 0.07897,-0.04479 0.142152,-0.08641 0.140402,-0.09248 -0.0017,-0.0061 -0.06498,-0.04706 -0.140516,-0.09108 -0.07553,-0.04402 -0.136362,-0.08423 -0.135173,-0.08935 0.0031,-0.0133 0.190497,-0.336993 0.201503,-0.348033 0.005,-0.0051 0.07314,0.02805 0.151337,0.07356 l 0.142183,0.08274 0.003,-0.170235 0.003,-0.170236 0.214886,0 0.214885,0 0.003,0.17087 0.003,0.170869 0.142481,-0.08248 c 0.07836,-0.04537 0.145485,-0.08231 0.149155,-0.08209 0.0075,4.36e-4 0.196367,0.32864 0.201952,0.350982 0.0021,0.0085 -0.05212,0.047 -0.132276,0.09391 -0.07473,0.04374 -0.136284,0.0845 -0.136787,0.09057 -5.03e-4,0.0061 0.06064,0.04697 0.135873,0.09087 0.07892,0.04605 0.135279,0.08578 0.133224,0.09391 -0.0061,0.02426 -0.194906,0.350481 -0.202985,0.350783 -0.0042,1.58e-4 -0.07134,-0.03671 -0.149156,-0.08192 l -0.141481,-0.08221 -0.003,0.170599 -0.003,0.170599 -0.214885,0 -0.214886,0 -0.003,-0.169778 z"
     id="path4764"
     inkscape:connector-curvature="0" />
  <path
     style="opacity:1;fill:#000000;fill-opacity:0.15686275;stroke:none;stroke-width:0.1;stroke-miterlimit:4;stroke-dasharray:none;stroke-opacity:1"
     d="m 12.033556,22.549883 c 0,-0.142191 -0.0027,-0.171407 -0.01527,-0.166576 -0.0084,0.0032 -0.07653,0.04086 -0.151395,0.08365 -0.07487,0.04278 -0.137107,0.07672 -0.138304,0.07543 -0.0104,-0.01129 -0.203265,-0.351452 -0.203265,-0.358499 0,-0.0051 0.06419,-0.0463 0.142641,-0.09161 0.07845,-0.0453 0.140504,-0.08583 0.13789,-0.09006 -0.0026,-0.0042 -0.0668,-0.04318 -0.142641,-0.08656 -0.07584,-0.04338 -0.13789,-0.08318 -0.13789,-0.08845 0,-0.0067 0.183649,-0.332677 0.203322,-0.360889 7.68e-4,-0.0011 0.06499,0.03495 0.142716,0.0801 0.07773,0.04516 0.146018,0.0821 0.151758,0.0821 0.0061,0 0.01044,-0.07114 0.01044,-0.171252 l 0,-0.171253 0.209922,0 0.209922,0 0,0.172435 c 0,0.159675 0.0014,0.171887 0.01933,0.165038 0.01064,-0.0041 0.0751,-0.0394 0.143253,-0.07852 0.06816,-0.03912 0.128572,-0.07112 0.134261,-0.07112 0.0092,0 0.189601,0.301674 0.206015,0.344447 0.0048,0.01255 -0.03029,0.03773 -0.137473,0.0986 -0.07917,0.04497 -0.144047,0.08437 -0.144179,0.08758 -1.33e-4,0.0032 0.06437,0.04298 0.143346,0.08839 0.07897,0.04541 0.143607,0.08551 0.143631,0.08911 3.3e-5,0.0052 -0.194505,0.3488 -0.204551,0.361301 -0.0014,0.0018 -0.06335,-0.03211 -0.137604,-0.07533 -0.07425,-0.04322 -0.141981,-0.08125 -0.150516,-0.08453 -0.01292,-0.005 -0.01552,0.02295 -0.01552,0.16648 l 0,0.172434 -0.209922,0 -0.209922,0 0,-0.172434 z"
     id="path4766"
     inkscape:connector-curvature="0" />
  <path
     style="opacity:1;fill:#000000;fill-opacity:0.15686275;stroke:none;stroke-width:0.1;stroke-miterlimit:4;stroke-dasharray:none;stroke-opacity:1"
     d="m 13.846673,23.489279 c -0.08411,-0.02262 -0.160939,-0.0669 -0.235463,-0.135716 -0.121076,-0.111804 -0.191506,-0.31075 -0.163901,-0.462982 0.0066,-0.03626 0.312735,-1.18897 0.680355,-2.561584 0.471198,-1.759351 0.678453,-2.516287 0.702474,-2.565571 0.06435,-0.132035 0.205234,-0.243446 0.358236,-0.283298 0.210164,-0.05474 0.454019,0.04073 0.577914,0.22627 0.06126,0.09174 0.09006,0.188548 0.09006,0.302716 0,0.08492 -0.04219,0.24817 -0.674352,2.609055 -0.475564,1.776064 -0.684549,2.539639 -0.708944,2.590284 -0.06412,0.133112 -0.21518,0.252396 -0.362681,0.286385 -0.0694,0.01599 -0.19328,0.01338 -0.263702,-0.0056 z"
     id="path4768"
     inkscape:connector-curvature="0" />
  <path
     style="opacity:1;fill:#000000;fill-opacity:0.15686275;stroke:none;stroke-width:0.1;stroke-miterlimit:4;stroke-dasharray:none;stroke-opacity:1"
     d="m 16.939109,19.135883 c 0,-0.151836 -0.0021,-0.171643 -0.01727,-0.165807 -0.0095,0.0036 -0.07739,0.04153 -0.150864,0.08418 -0.07348,0.04265 -0.134819,0.07625 -0.136317,0.07466 -0.0098,-0.01036 -0.203781,-0.352738 -0.203781,-0.35958 0,-0.0047 0.06461,-0.04566 0.143587,-0.09108 0.07897,-0.04541 0.143476,-0.08505 0.143342,-0.08809 -1.35e-4,-0.003 -0.06475,-0.04186 -0.143587,-0.08627 -0.07884,-0.04441 -0.143342,-0.085 -0.143342,-0.09019 0,-0.0052 0.04134,-0.08073 0.09188,-0.167848 0.05053,-0.08712 0.0966,-0.16689 0.102378,-0.177269 0.0093,-0.01668 0.02688,-0.0093 0.152009,0.06353 0.07783,0.04532 0.146113,0.0824 0.151739,0.0824 0.0058,0 0.01023,-0.0736 0.01023,-0.171252 l 0,-0.171252 0.209922,0 0.209923,0 0,0.171252 c 0,0.09419 0.0043,0.171252 0.0096,0.171252 0.0053,0 0.06952,-0.0348 0.142797,-0.07734 0.07328,-0.04254 0.138114,-0.07734 0.144086,-0.07734 0.0097,0 0.189425,0.299596 0.206213,0.343762 0.0053,0.01381 -0.02565,0.03622 -0.137133,0.09944 -0.07915,0.04488 -0.144057,0.08434 -0.144236,0.08768 -1.78e-4,0.0033 0.06431,0.04287 0.143307,0.08784 0.079,0.04497 0.143631,0.0853 0.143631,0.08961 0,0.006 -0.192362,0.345425 -0.204595,0.361045 -0.0014,0.0018 -0.06246,-0.03183 -0.135743,-0.07464 -0.07328,-0.0428 -0.141041,-0.08082 -0.15057,-0.08447 -0.01528,-0.0059 -0.01732,0.01372 -0.01732,0.165787 l 0,0.172434 -0.209923,0 -0.209922,0 0,-0.172434 z"
     id="path4770"
     inkscape:connector-curvature="0" />
  <path
     style="opacity:1;fill:#000000;fill-opacity:0.15686275;stroke:none;stroke-width:0.1;stroke-miterlimit:4;stroke-dasharray:none;stroke-opacity:1"
     d="m 16.486119,20.828071 0,-0.170673 -0.145552,0.08364 c -0.138091,0.07935 -0.146333,0.08258 -0.160781,0.06295 -0.0084,-0.01138 -0.04788,-0.07786 -0.08778,-0.147747 -0.03991,-0.06988 -0.08193,-0.1426 -0.09339,-0.161595 l -0.02084,-0.03454 0.143423,-0.08147 c 0.07888,-0.04481 0.141951,-0.08644 0.140151,-0.09252 -0.0018,-0.0061 -0.06507,-0.04706 -0.140607,-0.09108 -0.07553,-0.04402 -0.136317,-0.08436 -0.135072,-0.08965 0.0031,-0.01302 0.190471,-0.336154 0.201671,-0.347728 0.0049,-0.0051 0.07287,0.02805 0.151068,0.07356 l 0.142182,0.08274 0.003,-0.170235 0.003,-0.170236 0.214885,0 0.214886,0 0.003,0.170428 0.003,0.170427 0.146736,-0.08354 c 0.0807,-0.04595 0.148277,-0.08162 0.15016,-0.07928 0.01235,0.01537 0.193976,0.338527 0.196792,0.35014 0.0021,0.0085 -0.05229,0.04722 -0.131705,0.09391 -0.07436,0.04372 -0.135916,0.08446 -0.136788,0.09054 -8.71e-4,0.0061 0.05997,0.04679 0.135202,0.09046 0.07523,0.04368 0.136788,0.08345 0.136788,0.08839 0,0.01446 -0.198114,0.356781 -0.206549,0.356896 -0.0042,5.6e-5 -0.07134,-0.03689 -0.149155,-0.0821 l -0.141481,-0.08221 -0.003,0.170599 -0.003,0.170599 -0.215166,0 -0.215166,0 0,-0.170673 z"
     id="path4772"
     inkscape:connector-curvature="0" />
  <path
     style="opacity:1;fill:#000000;fill-opacity:0.15686275;stroke:none;stroke-width:0.1;stroke-miterlimit:4;stroke-dasharray:none;stroke-opacity:1"
     d="m 16.033128,22.549883 c 0,-0.142191 -0.0027,-0.171407 -0.01527,-0.166576 -0.0084,0.0032 -0.07653,0.04086 -0.151396,0.08365 -0.07487,0.04278 -0.137106,0.07672 -0.138303,0.07543 -0.01032,-0.0112 -0.203266,-0.351423 -0.203266,-0.358411 0,-0.005 0.06461,-0.0463 0.143587,-0.09172 0.07897,-0.04541 0.143477,-0.08505 0.143342,-0.08809 -1.35e-4,-0.003 -0.06475,-0.04186 -0.143587,-0.08627 -0.07884,-0.04441 -0.143342,-0.085 -0.143342,-0.09019 0,-0.0052 0.04135,-0.08073 0.09188,-0.167848 0.05053,-0.08712 0.0966,-0.16689 0.102377,-0.177269 0.0093,-0.01669 0.02688,-0.0093 0.15201,0.06353 0.07783,0.04532 0.146113,0.0824 0.151738,0.0824 0.0058,0 0.01023,-0.0736 0.01023,-0.171252 l 0,-0.171253 0.209923,0 0.209922,0 0,0.172435 c 0,0.159675 0.0014,0.171887 0.01934,0.165038 0.01063,-0.0041 0.0751,-0.0394 0.143253,-0.07852 0.06815,-0.03912 0.128598,-0.07112 0.134319,-0.07112 0.0094,0 0.189412,0.300759 0.205701,0.343614 0.0052,0.01362 -0.02638,0.03648 -0.137218,0.09944 -0.07917,0.04497 -0.144046,0.08449 -0.144179,0.08783 -1.32e-4,0.0033 0.06439,0.04287 0.143391,0.08784 0.079,0.04497 0.143631,0.0853 0.143631,0.08961 0,0.006 -0.192361,0.345425 -0.204595,0.361045 -0.0014,0.0018 -0.06246,-0.03183 -0.135742,-0.07464 -0.07328,-0.0428 -0.141042,-0.08082 -0.150571,-0.08447 -0.01528,-0.0059 -0.01732,0.01372 -0.01732,0.165787 l 0,0.172434 -0.209922,0 -0.209923,0 0,-0.172434 z"
     id="path4774"
     inkscape:connector-curvature="0" />
  <path
     style="opacity:1;fill:#000000;fill-opacity:0.15686275;stroke:none;stroke-width:0.1;stroke-miterlimit:4;stroke-dasharray:none;stroke-opacity:1"
     d="m 8.3903724,21.355305 c -0.033813,-0.03386 -0.061478,-0.06291 -0.061478,-0.06455 0,-0.0016 0.028564,-0.0025 0.063477,-0.0019 l 0.063477,0.0011 0.00107,0.06348 c 5.904e-4,0.03491 -3.091e-4,0.06348 -0.002,0.06348 -0.00169,0 -0.030737,-0.02771 -0.06455,-0.06157 z"
     id="path4776"
     inkscape:connector-curvature="0" />
  <path
     style="opacity:1;fill:#000000;fill-opacity:0.15686275;stroke:none;stroke-width:0.1;stroke-miterlimit:4;stroke-dasharray:none;stroke-opacity:1"
     d="m 8.7488773,21.713809 c -0.1359778,-0.13601 -0.155406,-0.156896 -0.1503724,-0.161659 0.011566,-0.01094 0.1523101,-0.08922 0.1571018,-0.08738 0.00705,0.0027 0.2137223,0.362113 0.2115258,0.367837 -0.0015,0.0039 -0.055793,0.03739 -0.060639,0.03739 -8.048e-4,0 -0.071732,-0.07028 -0.157616,-0.156189 z"
     id="path4778"
     inkscape:connector-curvature="0" />
</svg>
