<?xml version="1.0" encoding="UTF-8" standalone="no"?>
<svg
   xmlns:dc="http://purl.org/dc/elements/1.1/"
   xmlns:cc="http://creativecommons.org/ns#"
   xmlns:rdf="http://www.w3.org/1999/02/22-rdf-syntax-ns#"
   xmlns:svg="http://www.w3.org/2000/svg"
   xmlns="http://www.w3.org/2000/svg"
   xmlns:sodipodi="http://sodipodi.sourceforge.net/DTD/sodipodi-0.dtd"
   xmlns:inkscape="http://www.inkscape.org/namespaces/inkscape"
   id="svg2"
   viewBox="0 0 24 24"
   height="24"
   width="24"
   version="1.1"
   inkscape:version="0.91 r13725"
   sodipodi:docname="weather_cloudy.svg">
  <sodipodi:namedview
     pagecolor="#ffffff"
     bordercolor="#666666"
     borderopacity="1"
     objecttolerance="10"
     gridtolerance="10"
     guidetolerance="10"
     inkscape:pageopacity="0"
     inkscape:pageshadow="2"
     inkscape:window-width="1920"
     inkscape:window-height="1022"
     id="namedview6"
     showgrid="false"
     inkscape:zoom="32"
     inkscape:cx="5.6072426"
     inkscape:cy="13.739665"
     inkscape:window-x="0"
     inkscape:window-y="26"
     inkscape:window-maximized="1"
     inkscape:current-layer="svg2" />
  <metadata
     id="metadata10">
    <rdf:RDF>
      <cc:Work
         rdf:about="">
        <dc:format>image/svg+xml</dc:format>
        <dc:type
           rdf:resource="http://purl.org/dc/dcmitype/StillImage" />
        <dc:title></dc:title>
      </cc:Work>
    </rdf:RDF>
  </metadata>
  <defs
     id="defs8" />
  <path
     style="fill:#e0e0e0;fill-opacity:1;fill-rule:evenodd;stroke:none;stroke-width:1px;stroke-linecap:butt;stroke-linejoin:miter;stroke-opacity:1"
     d="M 11.702129,7.220695 C 11.304401,5.2086582 9.5321714,3.6937816 7.4031554,3.6937816 c -1.690345,0 -3.15843,0.9592269 -3.889548,2.3571246 -1.760532,0.1930151 -3.12918503,1.6786473 -3.12918503,3.491819 A 3.5093666,3.5093666 0 0 0 3.8937884,13.052092 l 7.6036276,0 a 2.9244721,2.9244721 0 0 0 2.924472,-2.924472 c 0,-1.5441207 -1.199034,-2.7957954 -2.719759,-2.906925 z"
     id="path4288"
     inkscape:connector-curvature="0" />
  <path
     style="fill:#bdbdbd;fill-opacity:1;fill-rule:evenodd;stroke:none;stroke-width:1px;stroke-linecap:butt;stroke-linejoin:miter;stroke-opacity:1"
     d="M 18.708839,10.711096 C 18.081964,7.5398456 15.288683,5.1521893 11.933058,5.1521893 c -2.6642184,0 -4.9781247,1.511875 -6.1304684,3.7151563 C 3.0277458,9.1715643 0.87055826,11.513127 0.87055826,14.370939 a 5.53125,5.53125 0 0 0 5.53125004,5.53125 l 11.9843747,0 a 4.609375,4.609375 0 0 0 4.609375,-4.609375 c 0,-2.43375 -1.889844,-4.406563 -4.286719,-4.581718 z"
     id="path4159"
     inkscape:connector-curvature="0" />
  <path
     inkscape:connector-curvature="0"
     id="path4286"
     d="M 21.159683,7.3090834 C 20.761955,5.2970466 18.989725,3.78217 16.860709,3.78217 c -1.690345,0 -3.15843,0.9592269 -3.889548,2.3571246 -1.760532,0.1930151 -3.1291854,1.6786473 -3.1291854,3.491819 a 3.5093666,3.5093666 0 0 0 3.5093664,3.5093674 l 7.603628,0 a 2.9244721,2.9244721 0 0 0 2.924472,-2.924472 c 0,-1.5441213 -1.199034,-2.795796 -2.719759,-2.9069256 z"
     style="fill:#fafafa;fill-opacity:1;fill-rule:evenodd;stroke:none;stroke-width:1px;stroke-linecap:butt;stroke-linejoin:miter;stroke-opacity:1" />
  <path
     style="opacity:1;fill:#000000;fill-opacity:0.15686275;stroke:none;stroke-width:0.1;stroke-miterlimit:4;stroke-dasharray:none;stroke-opacity:1"
     d="m 14.983974,16.20997 c -2.019163,-2.019176 -3.666689,-3.675747 -3.661168,-3.681267 0.0055,-0.0055 0.07368,0.02933 0.151458,0.07744 0.419445,0.259458 0.877275,0.429317 1.360628,0.504805 0.169519,0.02647 0.412671,0.02806 4.296875,0.02806 3.331186,0 4.142542,-0.0039 4.25,-0.02061 0.267842,-0.04157 0.619936,-0.147436 0.809072,-0.243278 l 0.08038,-0.04073 0.07944,0.134491 c 0.319316,0.540615 0.515689,1.115166 0.602867,1.76388 0.03726,0.277252 0.03764,0.846604 7.47e-4,1.117187 -0.11586,0.849765 -0.417346,1.583219 -0.926208,2.253277 -0.152439,0.200727 -0.60523,0.657322 -0.802549,0.809292 -0.564968,0.435122 -1.2174,0.73997 -1.885626,0.881058 -0.192725,0.04069 -0.529917,0.08762 -0.629545,0.08762 -0.05257,0 -0.228254,-0.173088 -3.726372,-3.67123 z"
     id="path4294"
     inkscape:connector-curvature="0" />
</svg>
