<?xml version="1.0" encoding="UTF-8" standalone="no"?>
<svg
   xmlns:dc="http://purl.org/dc/elements/1.1/"
   xmlns:cc="http://creativecommons.org/ns#"
   xmlns:rdf="http://www.w3.org/1999/02/22-rdf-syntax-ns#"
   xmlns:svg="http://www.w3.org/2000/svg"
   xmlns="http://www.w3.org/2000/svg"
   xmlns:sodipodi="http://sodipodi.sourceforge.net/DTD/sodipodi-0.dtd"
   xmlns:inkscape="http://www.inkscape.org/namespaces/inkscape"
   id="svg2"
   viewBox="0 0 24 24"
   height="24"
   width="24"
   version="1.1"
   inkscape:version="0.91 r13725"
   sodipodi:docname="weather_showers.svg">
  <sodipodi:namedview
     pagecolor="#ffffff"
     bordercolor="#666666"
     borderopacity="1"
     objecttolerance="10"
     gridtolerance="10"
     guidetolerance="10"
     inkscape:pageopacity="0"
     inkscape:pageshadow="2"
     inkscape:window-width="1920"
     inkscape:window-height="1022"
     id="namedview6"
     showgrid="false"
     inkscape:zoom="32"
     inkscape:cx="10.859434"
     inkscape:cy="10.395449"
     inkscape:window-x="0"
     inkscape:window-y="26"
     inkscape:window-maximized="1"
     inkscape:current-layer="svg2" />
  <metadata
     id="metadata10">
    <rdf:RDF>
      <cc:Work
         rdf:about="">
        <dc:format>image/svg+xml</dc:format>
        <dc:type
           rdf:resource="http://purl.org/dc/dcmitype/StillImage" />
        <dc:title></dc:title>
      </cc:Work>
    </rdf:RDF>
  </metadata>
  <defs
     id="defs8" />
  <path
     style="fill:#bdbdbd;fill-opacity:1;fill-rule:evenodd;stroke:none;stroke-width:1px;stroke-linecap:butt;stroke-linejoin:miter;stroke-opacity:1"
     d="M 18.532062,7.7058922 C 17.905187,4.5346418 15.111906,2.1469855 11.756281,2.1469855 c -2.6642181,0 -4.9781244,1.511875 -6.1304681,3.7151563 C 2.8509691,6.1663605 0.69378157,8.5079232 0.69378157,11.365735 a 5.53125,5.53125 0 0 0 5.53125003,5.53125 l 11.9843744,0 a 4.609375,4.609375 0 0 0 4.609375,-4.609375 c 0,-2.4337498 -1.889844,-4.4065628 -4.286719,-4.5817178 z"
     id="path4159"
     inkscape:connector-curvature="0" />
  <path
     inkscape:connector-curvature="0"
     id="path4286"
     d="M 20.982906,4.3038796 C 20.585178,2.2918428 18.812948,0.77696619 16.683932,0.77696619 c -1.690345,0 -3.15843,0.95922691 -3.889548,2.35712461 -1.760532,0.1930151 -3.1291851,1.6786473 -3.1291851,3.491819 a 3.5093666,3.5093666 0 0 0 3.5093661,3.5093672 l 7.603628,0 a 2.9244721,2.9244721 0 0 0 2.924472,-2.9244718 c 0,-1.5441213 -1.199034,-2.795796 -2.719759,-2.9069256 z"
     style="fill:#fafafa;fill-opacity:1;fill-rule:evenodd;stroke:none;stroke-width:1px;stroke-linecap:butt;stroke-linejoin:miter;stroke-opacity:1" />
  <path
     style="opacity:1;fill:#000000;fill-opacity:0.15686275;stroke:none;stroke-width:0.1;stroke-miterlimit:4;stroke-dasharray:none;stroke-opacity:1"
     d="M 14.807197,13.204766 C 12.788034,11.18559 11.140508,9.5290192 11.146029,9.5234992 c 0.0055,-0.0055 0.07368,0.02933 0.151458,0.07744 0.419445,0.259458 0.877275,0.4293168 1.360628,0.5048048 0.169519,0.02647 0.412671,0.02806 4.296875,0.02806 3.331186,0 4.142542,-0.0039 4.25,-0.02061 0.267842,-0.04157 0.619936,-0.1474358 0.809072,-0.2432778 l 0.08038,-0.04073 0.07944,0.134491 c 0.319316,0.5406148 0.515689,1.1151658 0.602867,1.7638798 0.03726,0.277252 0.03764,0.846604 7.47e-4,1.117187 -0.11586,0.849765 -0.417346,1.583219 -0.926208,2.253277 -0.152439,0.200727 -0.60523,0.657322 -0.802549,0.809292 -0.564968,0.435122 -1.2174,0.73997 -1.885626,0.881058 -0.192725,0.04069 -0.529917,0.08762 -0.629545,0.08762 -0.05257,0 -0.228254,-0.173088 -3.726372,-3.67123 z"
     id="path4294"
     inkscape:connector-curvature="0" />
  <rect
     style="opacity:1;fill:#2196f3;fill-opacity:1;stroke:none;stroke-width:0.1;stroke-miterlimit:4;stroke-dasharray:none;stroke-opacity:1"
     id="rect4315"
     width="1.1048543"
     height="6.2313786"
     x="11.174475"
     y="14.951349"
     transform="matrix(0.96592583,0.25881905,-0.25881905,0.96592583,0,0)"
     ry="0.55242717" />
  <rect
     ry="0.55242717"
     transform="matrix(0.96592583,0.25881905,-0.25881905,0.96592583,0,0)"
     y="14.433711"
     x="13.106326"
     height="6.2313786"
     width="1.1048543"
     id="rect4317"
     style="opacity:1;fill:#2196f3;fill-opacity:1;stroke:none;stroke-width:0.1;stroke-miterlimit:4;stroke-dasharray:none;stroke-opacity:1" />
  <rect
     style="opacity:1;fill:#2196f3;fill-opacity:1;stroke:none;stroke-width:0.1;stroke-miterlimit:4;stroke-dasharray:none;stroke-opacity:1"
     id="rect4319"
     width="1.1048543"
     height="6.2313786"
     x="15.038177"
     y="13.916073"
     transform="matrix(0.96592583,0.25881905,-0.25881905,0.96592583,0,0)"
     ry="0.55242717" />
  <rect
     ry="0.55242717"
     transform="matrix(0.96592583,0.25881905,-0.25881905,0.96592583,0,0)"
     y="13.398435"
     x="16.970028"
     height="6.2313786"
     width="1.1048543"
     id="rect4321"
     style="opacity:1;fill:#2196f3;fill-opacity:1;stroke:none;stroke-width:0.1;stroke-miterlimit:4;stroke-dasharray:none;stroke-opacity:1" />
  <rect
     style="opacity:1;fill:#2196f3;fill-opacity:1;stroke:none;stroke-width:0.1;stroke-miterlimit:4;stroke-dasharray:none;stroke-opacity:1"
     id="rect4323"
     width="1.1048543"
     height="6.2313786"
     x="18.90188"
     y="12.880796"
     transform="matrix(0.96592583,0.25881905,-0.25881905,0.96592583,0,0)"
     ry="0.55242717" />
  <rect
     ry="0.55242717"
     transform="matrix(0.96592583,0.25881905,-0.25881905,0.96592583,0,0)"
     y="12.363158"
     x="20.833733"
     height="6.2313786"
     width="1.1048543"
     id="rect4325"
     style="opacity:1;fill:#2196f3;fill-opacity:1;stroke:none;stroke-width:0.1;stroke-miterlimit:4;stroke-dasharray:none;stroke-opacity:1" />
  <path
     style="opacity:1;fill:#000000;fill-opacity:0.15686275;stroke:none;stroke-width:0.1;stroke-miterlimit:4;stroke-dasharray:none;stroke-opacity:1"
     d="M 6.8360839,19.792393 C 6.5947012,19.550954 6.3972063,19.346859 6.3972063,19.338849 c 0,-0.01303 0.3551192,-1.348085 0.3915936,-1.472174 0.1021856,-0.347644 0.504502,-0.509241 0.8052809,-0.323455 0.1649751,0.101902 0.2637088,0.275864 0.2631853,0.463713 -2.307e-4,0.08277 -0.023877,0.178554 -0.2837534,1.149334 -0.1559259,0.582469 -0.2868878,1.06265 -0.2910265,1.06707 -0.00414,0.0044 -0.2050197,-0.189505 -0.4464023,-0.430944 z"
     id="path4333"
     inkscape:connector-curvature="0" />
  <path
     style="opacity:1;fill:#000000;fill-opacity:0.15686275;stroke:none;stroke-width:0.1;stroke-miterlimit:4;stroke-dasharray:none;stroke-opacity:1"
     d="M 8.406174,21.3616 7.9679669,20.922408 8.1771632,20.143486 c 0.1150579,-0.428408 0.3017406,-1.124466 0.4148504,-1.546797 0.1348188,-0.503388 0.2168644,-0.790237 0.2382006,-0.8328 0.1396025,-0.278492 0.50098,-0.382918 0.763653,-0.220669 0.1666429,0.102933 0.2645571,0.27694 0.2632854,0.467897 -5.867e-4,0.08808 -0.031366,0.208444 -0.4956111,1.9381 -0.2722422,1.014303 -0.499975,1.84585 -0.5060731,1.847882 -0.0061,0.002 -0.2082805,-0.193943 -0.4492944,-0.435499 z"
     id="path4335"
     inkscape:connector-curvature="0" />
  <path
     style="opacity:1;fill:#000000;fill-opacity:0.15686275;stroke:none;stroke-width:0.1;stroke-miterlimit:4;stroke-dasharray:none;stroke-opacity:1"
     d="M 9.9629528,22.919711 9.5456994,22.5019 10.170084,20.170882 c 0.483665,-1.805665 0.63301,-2.348599 0.662653,-2.409027 0.07394,-0.150727 0.238118,-0.26745 0.410123,-0.291578 0.261465,-0.03668 0.521912,0.134283 0.596705,0.391684 0.04485,0.154359 0.08538,-0.01551 -0.657737,2.756612 -0.398346,1.485983 -0.688522,2.548676 -0.705342,2.583135 -0.01572,0.0322 -0.04381,0.07593 -0.06243,0.09718 l -0.03385,0.03864 -0.4172532,-0.417811 z"
     id="path4337"
     inkscape:connector-curvature="0" />
  <path
     style="opacity:1;fill:#000000;fill-opacity:0.15686275;stroke:none;stroke-width:0.1;stroke-miterlimit:4;stroke-dasharray:none;stroke-opacity:1"
     d="m 11.90315,23.501642 c -0.214703,-0.03758 -0.393715,-0.202649 -0.446319,-0.411559 -0.0078,-0.03103 -0.01088,-0.09304 -0.0076,-0.154099 0.0049,-0.09129 0.07684,-0.3683 0.675293,-2.599149 0.518102,-1.931339 0.678498,-2.514642 0.708063,-2.57498 0.07384,-0.150693 0.238043,-0.267445 0.41008,-0.291578 0.322261,-0.0452 0.616147,0.212862 0.615907,0.54084 -5.5e-5,0.07464 -0.06721,0.333345 -0.676828,2.607456 -0.408145,1.522532 -0.688412,2.548561 -0.706104,2.584979 -0.03749,0.07717 -0.142255,0.189596 -0.215494,0.231256 -0.103608,0.05894 -0.24783,0.08594 -0.356977,0.06683 z"
     id="path4339"
     inkscape:connector-curvature="0" />
  <path
     style="opacity:1;fill:#000000;fill-opacity:0.15686275;stroke:none;stroke-width:0.1;stroke-miterlimit:4;stroke-dasharray:none;stroke-opacity:1"
     d="m 13.902937,23.501642 c -0.20357,-0.03563 -0.368256,-0.17822 -0.435355,-0.376942 -0.01984,-0.05876 -0.02278,-0.08756 -0.01842,-0.180409 0.0049,-0.103573 0.0471,-0.266699 0.675132,-2.607456 0.516906,-1.926565 0.678668,-2.514791 0.708118,-2.57498 0.09738,-0.199015 0.340543,-0.326333 0.556761,-0.291512 0.274815,0.04426 0.469272,0.268373 0.469213,0.540774 -1.1e-5,0.07471 -0.06661,0.331318 -0.676626,2.607164 -0.372135,1.388364 -0.689214,2.550946 -0.704621,2.583514 -0.03564,0.07534 -0.143575,0.191121 -0.217221,0.233013 -0.103608,0.05894 -0.247831,0.08594 -0.356977,0.06683 z"
     id="path4341"
     inkscape:connector-curvature="0" />
  <path
     style="opacity:1;fill:#000000;fill-opacity:0.15686275;stroke:none;stroke-width:0.1;stroke-miterlimit:4;stroke-dasharray:none;stroke-opacity:1"
     d="m 15.902723,23.501642 c -0.20357,-0.03563 -0.368255,-0.17822 -0.435354,-0.376942 -0.01986,-0.05883 -0.02278,-0.08745 -0.01836,-0.180409 0.0049,-0.103467 0.04782,-0.26909 0.675437,-2.607456 0.402789,-1.500707 0.682555,-2.523508 0.701187,-2.563483 0.0955,-0.20489 0.343675,-0.338382 0.56332,-0.303009 0.277824,0.04474 0.471477,0.270581 0.468441,0.546298 -8.86e-4,0.08049 -0.06078,0.311482 -0.670341,2.585359 -0.368152,1.373334 -0.679232,2.523301 -0.69129,2.555482 -0.05743,0.153284 -0.19824,0.283301 -0.353743,0.326632 -0.08266,0.02303 -0.170915,0.0295 -0.239299,0.01753 z"
     id="path4343"
     inkscape:connector-curvature="0" />
</svg>
