<?xml version="1.0" encoding="UTF-8" standalone="no"?>
<svg
   xmlns:dc="http://purl.org/dc/elements/1.1/"
   xmlns:cc="http://creativecommons.org/ns#"
   xmlns:rdf="http://www.w3.org/1999/02/22-rdf-syntax-ns#"
   xmlns:svg="http://www.w3.org/2000/svg"
   xmlns="http://www.w3.org/2000/svg"
   xmlns:sodipodi="http://sodipodi.sourceforge.net/DTD/sodipodi-0.dtd"
   xmlns:inkscape="http://www.inkscape.org/namespaces/inkscape"
   id="svg2"
   viewBox="0 0 24 24"
   height="24"
   width="24"
   version="1.1"
   inkscape:version="0.91 r13725"
   sodipodi:docname="weather_cold.svg">
  <sodipodi:namedview
     pagecolor="#ffffff"
     bordercolor="#666666"
     borderopacity="1"
     objecttolerance="10"
     gridtolerance="10"
     guidetolerance="10"
     inkscape:pageopacity="0"
     inkscape:pageshadow="2"
     inkscape:window-width="1920"
     inkscape:window-height="1022"
     id="namedview6"
     showgrid="false"
     inkscape:zoom="32"
     inkscape:cx="13.094729"
     inkscape:cy="10.846477"
     inkscape:window-x="0"
     inkscape:window-y="26"
     inkscape:window-maximized="1"
     inkscape:current-layer="svg2" />
  <metadata
     id="metadata10">
    <rdf:RDF>
      <cc:Work
         rdf:about="">
        <dc:format>image/svg+xml</dc:format>
        <dc:type
           rdf:resource="http://purl.org/dc/dcmitype/StillImage" />
        <dc:title></dc:title>
      </cc:Work>
    </rdf:RDF>
  </metadata>
  <defs
     id="defs8" />
  <path
     style="opacity:1;fill:#81d4fa;fill-opacity:1;stroke:none;stroke-width:0.1;stroke-miterlimit:4;stroke-dasharray:none;stroke-opacity:1"
     d="m 9.0541514,2.6858196 -1.3536727,1.3536744 3.3599123,3.3598507 0.0098,-0.00979 0,2.8867523 L 8.5730826,8.8345854 8.5756583,8.8339108 7.3458678,4.2442689 5.4967243,4.7396746 6.2317949,7.4828531 4.5057884,6.4863714 3.548625,8.1442048 5.2814252,9.144677 2.5275281,9.8825526 3.022997,11.731694 l 4.5896412,-1.229791 -0.00356,-0.0134 2.4977198,1.442038 -2.4921722,1.438859 6.746e-4,-0.0026 -4.5897044,-1.229854 -0.4954689,1.849081 2.7431796,0.73507 -1.7260076,0.996482 0.9571628,1.657896 1.7328002,-1.00047 -0.7378756,2.753961 1.8491416,0.495467 1.2297292,-4.589705 -0.013338,-0.0036 2.5052607,-1.446399 0,2.889246 -3.3594765,3.359478 1.3536114,1.353611 2.0058651,-2.005865 0,2.003622 1.914323,0 0,-2.008981 2.006675,2.006675 1.353613,-1.353674 -3.359914,-3.359914 -3.15e-4,3.25e-4 0,-2.877343 2.491923,1.438733 1.229667,4.589144 1.849017,-0.495469 -0.734196,-2.740063 1.735228,1.001841 0.957162,-1.657897 -1.739841,-1.004457 2.741186,-0.73451 -0.495529,-1.849094 -4.589705,1.22979 1.29e-4,4.74e-4 -2.494169,-1.439981 2.496911,-1.441601 4.589144,1.229668 0.495405,-1.8490802 -2.740063,-0.7341984 1.73523,-1.0017791 -0.957162,-1.6578358 -1.73984,1.0044603 0.734508,-2.7411848 -1.849142,-0.4954075 -1.229791,4.5897044 4.73e-4,1.619e-4 -2.486566,1.4356172 0,-2.8716103 0.0018,0.00184 3.359915,-3.3598507 -1.353614,-1.3536745 -2.008171,2.0081711 0,-1.9930283 -1.914323,0 0,2.0008799 -2.0160229,-2.0160227 z"
     id="rect4714"
     inkscape:connector-curvature="0" />
  <path
     style="opacity:1;fill:#000000;fill-opacity:0;stroke:none;stroke-width:0.1;stroke-miterlimit:4;stroke-dasharray:none;stroke-opacity:1"
     d="m 12.195032,11.951604 0,-9.2337015 0.386753,0 0.386752,0 0,1.0069734 0,1.0069753 1.015272,-1.014887 1.015271,-1.0148888 0.668604,0.668606 0.668605,0.6686053 -1.684213,1.6844418 -1.684214,1.6844417 0.0084,1.440624 0.0084,1.4406238 1.224715,-0.7060893 c 0.673583,-0.3883492 1.241581,-0.7322655 1.262209,-0.7642589 0.02063,-0.031994 0.306673,-1.0645419 0.635658,-2.2945508 0.328985,-1.2300102 0.602953,-2.241179 0.608817,-2.2470424 0.01496,-0.014958 1.758411,0.4548474 1.784408,0.480845 0.01168,0.011701 -0.140745,0.6255075 -0.338752,1.3640313 -0.198007,0.7385226 -0.353707,1.3490757 -0.345997,1.3567844 0.0077,0.00771 0.392429,-0.2047276 0.854937,-0.4720801 0.462506,-0.2673525 0.851817,-0.4860939 0.865133,-0.4860939 0.01332,0 0.231676,0.3584776 0.485237,0.7966166 0.429179,0.7415969 0.456985,0.7995793 0.402582,0.839493 -0.03214,0.02358 -0.417184,0.2488565 -0.855647,0.5006124 -0.438465,0.2517559 -0.797419,0.4654624 -0.797677,0.4749005 -3.15e-4,0.00945 0.613127,0.1815788 1.363074,0.3825275 L 21.4969,9.8804767 21.253388,10.7911 c -0.133932,0.500843 -0.258042,0.905474 -0.275803,0.899184 -0.09813,-0.03477 -4.498864,-1.205114 -4.531454,-1.205114 -0.04936,0 -2.510793,1.417313 -2.510484,1.445553 1.28e-4,0.01149 0.560678,0.344069 1.245671,0.739079 l 1.245442,0.718199 2.289172,-0.613092 c 1.259046,-0.337201 2.291407,-0.609629 2.294137,-0.605396 0.01324,0.02053 0.467722,1.752454 0.467392,1.781109 -1.63e-4,0.01817 -0.591385,0.190566 -1.313726,0.383109 -0.722339,0.192543 -1.333635,0.360758 -1.358437,0.373809 -0.04855,0.02555 0.05048,0.08755 1.084131,0.678708 0.424729,0.242907 0.583006,0.349267 0.570451,0.383326 -0.01546,0.04195 -0.877744,1.546892 -0.903061,1.576113 -0.0056,0.0065 -0.395507,-0.209637 -0.866424,-0.480263 -0.470916,-0.270626 -0.862347,-0.485913 -0.869844,-0.478416 -0.0075,0.0075 0.109174,0.47017 0.25927,1.028161 0.150097,0.557991 0.314264,1.168526 0.364818,1.356744 l 0.09192,0.342217 -0.86736,0.231249 c -0.477048,0.127186 -0.885987,0.238396 -0.908753,0.247132 -0.03028,0.01162 -0.20473,-0.594653 -0.649444,-2.256958 -0.33443,-1.250064 -0.616295,-2.286174 -0.62637,-2.302467 -0.01771,-0.02864 -2.46894,-1.453902 -2.500485,-1.453902 -0.0086,0 -0.0156,0.64907 -0.0156,1.44238 l 0,1.442376 1.675844,1.67561 1.675841,1.675612 -0.668437,0.669006 -0.668438,0.669007 -1.007405,-1.007024 -1.007405,-1.007025 0,1.02309 0,1.023088 -0.386752,0 -0.386752,0 0,-9.2337 z"
     id="path4732"
     inkscape:connector-curvature="0" />
  <path
     style="fill:#2196f3;fill-opacity:1;fill-rule:evenodd;stroke:none;stroke-width:1px;stroke-linecap:butt;stroke-linejoin:miter;stroke-opacity:1"
     d="m 17.49594,17.606425 a 2.4146408,2.4146408 0 0 1 -2.414641,2.414641 2.4146408,2.4146408 0 0 1 -2.414641,-2.414641 c 0,-0.792002 0.381514,-1.492248 0.965856,-1.931712 l 0,-3.863426 a 1.4487845,1.4487845 0 0 1 1.448785,-1.448785 1.4487845,1.4487845 0 0 1 1.448785,1.448785 l 0,3.863426 c 0.584342,0.439464 0.965856,1.13971 0.965856,1.931712 m -2.897568,-4.346353 0,2.979667 c -0.565027,0.198 -0.965858,0.73405 -0.965858,1.366686 a 1.4487845,1.4487845 0 0 0 1.448785,1.448785 1.4487845,1.4487845 0 0 0 1.448785,-1.448785 c 0,-0.632636 -0.40083,-1.168686 -0.965856,-1.366686 l 0,-2.979667 -0.965856,0 z"
     id="path4138"
     inkscape:connector-curvature="0" />
  <path
     style="opacity:1;fill:#000000;fill-opacity:0;stroke:none;stroke-width:0.1;stroke-miterlimit:4;stroke-dasharray:none;stroke-opacity:1"
     d="m 16.701144,19.528332 c -0.017,-0.04431 0.0423,-0.142723 0.16516,-0.274069 0.88087,-0.941721 0.851366,-2.447531 -0.06593,-3.364825 l -0.258296,-0.258296 0.0118,-1.13696 0.0118,-1.13696 0.813497,-0.217363 0.813496,-0.217364 0.744348,0.743383 c 0.409392,0.40886 0.744348,0.756075 0.744348,0.771588 0,0.01551 -0.165178,0.06963 -0.367062,0.120269 -0.644599,0.16167 -0.634542,0.135667 -0.160039,0.413779 0.229139,0.134301 0.619963,0.360246 0.868498,0.502099 l 0.451882,0.257917 -0.161722,0.289527 c -0.403696,0.722729 -0.762678,1.305237 -0.799375,1.297117 -0.02206,-0.0049 -0.4032,-0.218671 -0.846968,-0.475087 -0.443769,-0.256416 -0.82161,-0.466212 -0.839648,-0.466212 -0.01804,0 0.131561,0.611537 0.332441,1.358971 0.20088,0.747434 0.3611,1.363185 0.356044,1.368335 -0.0051,0.0052 -0.386154,0.10997 -0.846884,0.232932 -0.46073,0.122962 -0.860904,0.231844 -0.889276,0.241961 -0.02837,0.01012 -0.06352,-0.01272 -0.07812,-0.05074 z"
     id="path4763"
     inkscape:connector-curvature="0" />
  <path
     style="opacity:1;fill:#000000;fill-opacity:0.15686275;stroke:none;stroke-width:0.1;stroke-miterlimit:4;stroke-dasharray:none;stroke-opacity:1"
     d="m 16.687138,19.525643 -0.02243,-0.08141 0.134218,-0.136795 c 0.402563,-0.410294 0.635268,-0.907661 0.691331,-1.477602 0.04852,-0.493261 -0.06859,-1.018049 -0.324058,-1.452124 -0.130616,-0.221935 -0.337664,-0.465012 -0.540284,-0.6343 l -0.08563,-0.07154 0,-1.16272 0,-1.162719 0.831403,-0.22275 0.831403,-0.222749 0.776004,0.775804 c 0.59653,0.596378 0.771568,0.777355 0.756825,0.782509 -0.01055,0.0037 -0.231719,0.06343 -0.49149,0.132769 -0.259771,0.06934 -0.472317,0.128771 -0.472325,0.13208 -8e-6,0.0033 0.389906,0.231136 0.866474,0.506282 l 0.866489,0.500265 -0.03654,0.06272 c -0.0201,0.03449 -0.23152,0.400804 -0.469828,0.814019 -0.238308,0.413216 -0.43673,0.754984 -0.440937,0.759486 -0.0042,0.0045 -0.395252,-0.215589 -0.868987,-0.48909 -0.675726,-0.390117 -0.861849,-0.493066 -0.863718,-0.477748 -0.0013,0.01074 0.160711,0.626092 0.360047,1.36745 0.312072,1.160636 0.359992,1.349026 0.344887,1.355868 -0.02213,0.01003 -1.793736,0.483714 -1.809097,0.483714 -0.0062,0 -0.02142,-0.03664 -0.03376,-0.08141 z"
     id="path4775"
     inkscape:connector-curvature="0" />
  <path
     style="opacity:1;fill:#000000;fill-opacity:0.15686275;stroke:none;stroke-width:0.1;stroke-miterlimit:4;stroke-dasharray:none;stroke-opacity:1"
     d="m 15.529546,15.206975 c -0.0025,-0.0076 -0.01013,-0.03618 -0.01685,-0.06353 -0.0308,-0.125342 0.0063,-0.09609 -0.469985,-0.370621 l -0.43592,-0.251267 0,-0.628182 0,-0.628182 0.475087,0 0.475088,0 0,0.977796 c 0,0.664335 -0.0037,0.977796 -0.0114,0.977796 -0.0063,0 -0.01348,-0.0062 -0.01603,-0.01381 z"
     id="path4777"
     inkscape:connector-curvature="0" />
  <path
     style="opacity:1;fill:#000000;fill-opacity:0.15686275;stroke:none;stroke-width:0.1;stroke-miterlimit:4;stroke-dasharray:none;stroke-opacity:1"
     d="m 16.348774,18.278241 c -0.0012,-0.0048 -0.116462,-0.435009 -0.256069,-0.955944 -0.139606,-0.520935 -0.253346,-0.947638 -0.252754,-0.94823 0.0025,-0.0025 0.109538,0.07293 0.152792,0.107627 0.0921,0.07388 0.20668,0.196636 0.274383,0.293944 0.281086,0.404001 0.339164,0.926162 0.153304,1.378313 -0.02317,0.05637 -0.0612,0.133079 -0.06597,0.133079 -0.0019,0 -0.0045,-0.004 -0.0057,-0.0088 z"
     id="path4779"
     inkscape:connector-curvature="0" />
  <path
     style="opacity:1;fill:#000000;fill-opacity:0.15686275;stroke:none;stroke-width:0.1;stroke-miterlimit:4;stroke-dasharray:none;stroke-opacity:1"
     d="m 14.957587,19.048146 c -0.647329,-0.05691 -1.177863,-0.537129 -1.298317,-1.175179 -0.01812,-0.09598 -0.02192,-0.141602 -0.02196,-0.263672 -3.9e-5,-0.119267 0.0029,-0.159628 0.01788,-0.248047 0.0087,-0.05097 0.03863,-0.175781 0.04222,-0.175781 0.0051,0 1.805809,1.803782 1.802624,1.805689 -0.01472,0.0088 -0.143649,0.03733 -0.214326,0.04741 -0.09748,0.01389 -0.23386,0.01787 -0.328125,0.0096 z"
     id="path4781"
     inkscape:connector-curvature="0" />
  <path
     style="opacity:1;fill:#000000;fill-opacity:0.15686275;stroke:none;stroke-width:0.1;stroke-miterlimit:4;stroke-dasharray:none;stroke-opacity:1"
     d="m 14.335663,20.272306 c -0.429595,-0.429598 -0.779884,-0.782285 -0.778421,-0.783749 0.0031,-0.0031 0.0024,-0.0036 0.06998,0.04758 0.219943,0.16649 0.477725,0.298735 0.737574,0.378382 0.225363,0.06908 0.429395,0.101661 0.666015,0.106365 0.407852,0.0081 0.776787,-0.07537 1.14266,-0.258546 l 0.06757,-0.03383 0.05015,0.05015 0.05015,0.05015 -0.612302,0.612292 -0.612302,0.612293 -0.781081,-0.781089 z"
     id="path4783"
     inkscape:connector-curvature="0" />
  <path
     style="opacity:1;fill:#000000;fill-opacity:0.15686275;stroke:none;stroke-width:0.1;stroke-miterlimit:4;stroke-dasharray:none;stroke-opacity:1"
     d="m 11.100979,20.184773 c 0,-0.55 -0.01047,-1 -0.02326,-1 -0.01279,0 -0.469843,0.446422 -1.01567,0.99205 l -0.9924137,0.99205 -0.663775,-0.663775 -0.663775,-0.663775 1.6794456,-1.680514 1.6794461,-1.680514 0,-1.442792 c 0,-0.793535 -0.01055,-1.44846 -0.02344,-1.455389 -0.03906,-0.021 -2.4904615,1.412127 -2.5151087,1.47037 -0.012607,0.02979 -0.2917591,1.059633 -0.6203388,2.288539 -0.3285793,1.228906 -0.6026787,2.239883 -0.6091096,2.246614 -0.00643,0.0067 -0.411675,-0.09522 -0.9005425,-0.226562 -0.4888679,-0.131341 -0.8945606,-0.238802 -0.9015398,-0.238802 -0.010573,0 0.6468141,-2.486208 0.7101629,-2.685802 0.011207,-0.03531 0.00757,-0.0642 -0.00809,-0.0642 -0.015653,0 -0.405826,0.218275 -0.8670505,0.485055 C 4.9047046,17.124108 4.5165809,17.33153 4.5034319,17.318266 4.4902829,17.305001 4.3088464,16.998835 4.1002398,16.637898 3.8916332,16.27696 3.6873729,15.923651 3.646328,15.852766 L 3.5717008,15.723884 4.4299433,15.229182 C 4.9019766,14.957096 5.2777047,14.725083 5.2648946,14.713597 5.2520845,14.70211 4.6405608,14.532723 3.905953,14.33718 2.9959204,14.094942 2.5702109,13.968412 2.5700155,13.940112 c -3.507e-4,-0.05076 0.4375799,-1.6942 0.4647223,-1.743984 0.013329,-0.02445 0.686614,0.1433 2.1599907,0.53816 1.1773438,0.315523 2.2059535,0.59043 2.2857997,0.610903 l 0.1451744,0.03722 1.2142006,-0.697393 c 0.66781,-0.383567 1.2308908,-0.712802 1.2512898,-0.731635 0.02758,-0.02546 -0.2830163,-0.218459 -1.2118391,-0.75299 -0.6869107,-0.395313 -1.266101,-0.714889 -1.2870894,-0.71017 -0.020988,0.0047 -1.050661,0.28057 -2.288161,0.613003 C 3.770731,11.515144 3.0476269,11.696545 3.0337686,11.672776 3.006392,11.62582 2.5697077,9.9870391 2.5698064,9.9316259 2.569862,9.9003978 2.9517512,9.7862272 3.9057439,9.5322303 4.6404667,9.3366131 5.2531236,9.1661869 5.2672036,9.1535053 5.2812836,9.1408238 4.9086274,8.908805 4.4390786,8.6379081 3.9695298,8.3670113 3.5827753,8.1434531 3.5796241,8.1411119 3.5700267,8.1339822 4.4684621,6.5860394 4.5011975,6.5533038 4.5210852,6.5334163 4.8281726,6.6935972 5.3815677,7.0125169 5.8489739,7.2818816 6.2355223,7.4976306 6.2405639,7.4919594 6.2456057,7.4862881 6.0849823,6.8699291 5.8836229,6.1222728 5.6822639,5.3746166 5.5194412,4.7598293 5.5217951,4.7560788 c 0.0063,-0.010035 1.7587597,-0.477556 1.7900753,-0.477556 0.014651,0 0.2998706,1.0204275 0.6338219,2.2676166 0.3339516,1.247189 0.6144916,2.2786056 0.6234228,2.2920365 0.023722,0.035675 2.4613759,1.4403471 2.4995639,1.4403471 0.02176,0 0.0323,-0.4664605 0.0323,-1.4297961 l 0,-1.429796 L 9.4135576,5.7317268 7.7261364,4.0445227 8.3898948,3.3802253 9.0536532,2.7159278 l 1.0080378,1.0076797 1.008038,1.0076797 0,-1.0076322 0,-1.0076322 0.46875,0 0.46875,0 0,9.2343752 0,9.234375 -0.453125,0 -0.453125,0 0,-1 z"
     id="path4791"
     inkscape:connector-curvature="0" />
</svg>
