<?xml version="1.0" encoding="UTF-8" standalone="no"?>
<svg
   xmlns:dc="http://purl.org/dc/elements/1.1/"
   xmlns:cc="http://creativecommons.org/ns#"
   xmlns:rdf="http://www.w3.org/1999/02/22-rdf-syntax-ns#"
   xmlns:svg="http://www.w3.org/2000/svg"
   xmlns="http://www.w3.org/2000/svg"
   xmlns:sodipodi="http://sodipodi.sourceforge.net/DTD/sodipodi-0.dtd"
   xmlns:inkscape="http://www.inkscape.org/namespaces/inkscape"
   id="svg2"
   viewBox="0 0 24 24"
   height="24"
   width="24"
   version="1.1"
   inkscape:version="0.91 r13725"
   sodipodi:docname="weather_snow_n_sleet.svg">
  <sodipodi:namedview
     pagecolor="#ffffff"
     bordercolor="#666666"
     borderopacity="1"
     objecttolerance="10"
     gridtolerance="10"
     guidetolerance="10"
     inkscape:pageopacity="0"
     inkscape:pageshadow="2"
     inkscape:window-width="1920"
     inkscape:window-height="1022"
     id="namedview6"
     showgrid="false"
     inkscape:zoom="11.313709"
     inkscape:cx="14.896959"
     inkscape:cy="0.5645609"
     inkscape:window-x="0"
     inkscape:window-y="26"
     inkscape:window-maximized="1"
     inkscape:current-layer="svg2" />
  <metadata
     id="metadata10">
    <rdf:RDF>
      <cc:Work
         rdf:about="">
        <dc:format>image/svg+xml</dc:format>
        <dc:type
           rdf:resource="http://purl.org/dc/dcmitype/StillImage" />
        <dc:title />
      </cc:Work>
    </rdf:RDF>
  </metadata>
  <defs
     id="defs8" />
  <path
     style="fill:#bdbdbd;fill-opacity:1;fill-rule:evenodd;stroke:none;stroke-width:1px;stroke-linecap:butt;stroke-linejoin:miter;stroke-opacity:1"
     d="M 18.532062,7.7058922 C 17.905187,4.5346418 15.111906,2.1469855 11.756281,2.1469855 c -2.6642181,0 -4.9781244,1.511875 -6.1304681,3.7151563 C 2.8509691,6.1663605 0.69378157,8.5079232 0.69378157,11.365735 a 5.53125,5.53125 0 0 0 5.53125003,5.53125 l 11.9843744,0 a 4.609375,4.609375 0 0 0 4.609375,-4.609375 c 0,-2.4337498 -1.889844,-4.4065628 -4.286719,-4.5817178 z"
     id="path4159"
     inkscape:connector-curvature="0" />
  <path
     inkscape:connector-curvature="0"
     id="path4286"
     d="M 20.982906,4.3038796 C 20.585178,2.2918428 18.812948,0.77696619 16.683932,0.77696619 c -1.690345,0 -3.15843,0.95922691 -3.889548,2.35712461 -1.760532,0.1930151 -3.1291851,1.6786473 -3.1291851,3.491819 a 3.5093666,3.5093666 0 0 0 3.5093661,3.5093672 l 7.603628,0 a 2.9244721,2.9244721 0 0 0 2.924472,-2.9244718 c 0,-1.5441213 -1.199034,-2.795796 -2.719759,-2.9069256 z"
     style="fill:#fafafa;fill-opacity:1;fill-rule:evenodd;stroke:none;stroke-width:1px;stroke-linecap:butt;stroke-linejoin:miter;stroke-opacity:1" />
  <path
     style="opacity:1;fill:#000000;fill-opacity:0.15686275;stroke:none;stroke-width:0.1;stroke-miterlimit:4;stroke-dasharray:none;stroke-opacity:1"
     d="M 14.807197,13.204766 C 12.788034,11.18559 11.140508,9.5290192 11.146029,9.5234992 c 0.0055,-0.0055 0.07368,0.02933 0.151458,0.07744 0.419445,0.259458 0.877275,0.4293168 1.360628,0.5048048 0.169519,0.02647 0.412671,0.02806 4.296875,0.02806 3.331186,0 4.142542,-0.0039 4.25,-0.02061 0.267842,-0.04157 0.619936,-0.1474358 0.809072,-0.2432778 l 0.08038,-0.04073 0.07944,0.134491 c 0.319316,0.5406148 0.515689,1.1151658 0.602867,1.7638798 0.03726,0.277252 0.03764,0.846604 7.47e-4,1.117187 -0.11586,0.849765 -0.417346,1.583219 -0.926208,2.253277 -0.152439,0.200727 -0.60523,0.657322 -0.802549,0.809292 -0.564968,0.435122 -1.2174,0.73997 -1.885626,0.881058 -0.192725,0.04069 -0.529917,0.08762 -0.629545,0.08762 -0.05257,0 -0.228254,-0.173088 -3.726372,-3.67123 z"
     id="path4294"
     inkscape:connector-curvature="0" />
  <path
     inkscape:connector-curvature="0"
     style="opacity:1;fill:#ffffff;fill-opacity:1;stroke:none;stroke-width:0.1;stroke-miterlimit:4;stroke-dasharray:none;stroke-opacity:1"
     d="m 8.4575301,17.760608 c -0.00718,0 -0.01296,0.0058 -0.01296,0.01296 l 0,0.330106 -0.285911,-0.165053 c -0.00622,-0.0036 -0.014089,-0.0015 -0.017676,0.0048 l -0.2047588,0.354698 c -0.00359,0.0062 -0.0015,0.01409 0.00472,0.01768 l 0.2858649,0.165053 -0.2858649,0.165052 c -0.00622,0.0036 -0.00831,0.01151 -0.00472,0.01772 l 0.2047588,0.354652 c 0.00359,0.0062 0.011463,0.0084 0.017676,0.0048 l 0.285911,-0.165052 0,0.330105 c 0,0.0072 0.00578,0.01296 0.01296,0.01296 l 0.4095627,0 c 0.00718,0 0.012914,-0.0058 0.012914,-0.01296 l 0,-0.330105 0.285911,0.165052 c 0.00622,0.0036 0.014091,0.0015 0.017679,-0.0048 l 0.2048048,-0.354652 c 0.0036,-0.0062 0.0015,-0.01414 -0.0048,-0.01772 L 9.097773,18.480812 9.3836386,18.31576 c 0.0062,-0.0036 0.0084,-0.01146 0.0048,-0.01768 L 9.1835964,17.943384 c -0.00359,-0.0062 -0.011463,-0.0084 -0.017679,-0.0048 l -0.285911,0.165053 0,-0.330105 c 0,-0.0072 -0.00574,-0.01296 -0.012914,-0.01296 l -0.4095627,0 z"
     id="rect4695" />
  <path
     id="path5107"
     d="m 12.45753,17.760608 c -0.0072,0 -0.01296,0.0058 -0.01296,0.01296 l 0,0.330106 -0.285911,-0.165053 c -0.0062,-0.0036 -0.01409,-0.0015 -0.01768,0.0048 l -0.204759,0.354698 c -0.0036,0.0062 -0.0015,0.01409 0.0047,0.01768 l 0.285865,0.165053 -0.285865,0.165052 c -0.0062,0.0036 -0.0083,0.01151 -0.0047,0.01772 l 0.204759,0.354652 c 0.0036,0.0062 0.01146,0.0084 0.01768,0.0048 l 0.285911,-0.165052 0,0.330105 c 0,0.0072 0.0058,0.01296 0.01296,0.01296 l 0.409563,0 c 0.0072,0 0.01291,-0.0058 0.01291,-0.01296 l 0,-0.330105 0.285911,0.165052 c 0.0062,0.0036 0.01409,0.0015 0.01768,-0.0048 l 0.204805,-0.354652 c 0.0036,-0.0062 0.0015,-0.01414 -0.0048,-0.01772 L 13.09777,18.480812 13.383636,18.31576 c 0.0062,-0.0036 0.0084,-0.01146 0.0048,-0.01768 l -0.204843,-0.354696 c -0.0036,-0.0062 -0.01146,-0.0084 -0.01768,-0.0048 l -0.285911,0.165053 0,-0.330105 c 0,-0.0072 -0.0057,-0.01296 -0.01291,-0.01296 l -0.409562,0 z"
     style="opacity:1;fill:#ffffff;fill-opacity:1;stroke:none;stroke-width:0.1;stroke-miterlimit:4;stroke-dasharray:none;stroke-opacity:1"
     inkscape:connector-curvature="0" />
  <path
     inkscape:connector-curvature="0"
     style="opacity:1;fill:#ffffff;fill-opacity:1;stroke:none;stroke-width:0.1;stroke-miterlimit:4;stroke-dasharray:none;stroke-opacity:1"
     d="m 9.8830074,19.760608 c -0.0072,0 -0.01296,0.0058 -0.01296,0.01296 l 0,0.330106 -0.2859124,-0.165053 c -0.0062,-0.0036 -0.01409,-0.0015 -0.01768,0.0048 l -0.2047596,0.354698 c -0.0036,0.0062 -0.0015,0.01409 0.0047,0.01768 l 0.285866,0.165053 -0.285866,0.165052 c -0.0062,0.0036 -0.0083,0.01151 -0.0047,0.01772 l 0.2047596,0.354652 c 0.0036,0.0062 0.01146,0.0084 0.01768,0.0048 l 0.2859124,-0.165052 0,0.330105 c 0,0.0072 0.0058,0.01296 0.01296,0.01296 l 0.4095636,0 c 0.0072,0 0.01291,-0.0058 0.01291,-0.01296 l 0,-0.330105 0.285911,0.165052 c 0.0062,0.0036 0.01409,0.0015 0.01768,-0.0048 l 0.204805,-0.354652 c 0.0036,-0.0062 0.0015,-0.01414 -0.0048,-0.01772 l -0.285829,-0.165092 0.285866,-0.165052 c 0.0062,-0.0036 0.0084,-0.01146 0.0048,-0.01768 l -0.204843,-0.354696 c -0.0036,-0.0062 -0.01146,-0.0084 -0.01768,-0.0048 l -0.285911,0.165053 0,-0.330105 c 0,-0.0072 -0.0057,-0.01296 -0.01291,-0.01296 l -0.4095626,0 z"
     id="path5109" />
  <path
     id="path5111"
     d="m 13.883008,19.760608 c -0.0072,0 -0.01296,0.0058 -0.01296,0.01296 l 0,0.330106 -0.285911,-0.165053 c -0.0062,-0.0036 -0.01409,-0.0015 -0.01768,0.0048 l -0.204759,0.354698 c -0.0036,0.0062 -0.0015,0.01409 0.0047,0.01768 l 0.285865,0.165053 -0.285865,0.165052 c -0.0062,0.0036 -0.0083,0.01151 -0.0047,0.01772 l 0.204759,0.354652 c 0.0036,0.0062 0.01146,0.0084 0.01768,0.0048 l 0.285911,-0.165052 0,0.330105 c 0,0.0072 0.0058,0.01296 0.01296,0.01296 l 0.409563,0 c 0.0072,0 0.01291,-0.0058 0.01291,-0.01296 l 0,-0.330105 0.285911,0.165052 c 0.0062,0.0036 0.01409,0.0015 0.01768,-0.0048 l 0.204805,-0.354652 c 0.0036,-0.0062 0.0015,-0.01414 -0.0048,-0.01772 l -0.285829,-0.165092 0.285866,-0.165052 c 0.0062,-0.0036 0.0084,-0.01146 0.0048,-0.01768 l -0.204843,-0.354696 c -0.0036,-0.0062 -0.01146,-0.0084 -0.01768,-0.0048 l -0.285911,0.165053 0,-0.330105 c 0,-0.0072 -0.0057,-0.01296 -0.01291,-0.01296 l -0.409562,0 z"
     style="opacity:1;fill:#ffffff;fill-opacity:1;stroke:none;stroke-width:0.1;stroke-miterlimit:4;stroke-dasharray:none;stroke-opacity:1"
     inkscape:connector-curvature="0" />
  <path
     inkscape:connector-curvature="0"
     style="opacity:1;fill:#ffffff;fill-opacity:1;stroke:none;stroke-width:0.1;stroke-miterlimit:4;stroke-dasharray:none;stroke-opacity:1"
     d="m 16.45753,17.760608 c -0.0072,0 -0.01296,0.0058 -0.01296,0.01296 l 0,0.330106 -0.285911,-0.165053 c -0.0062,-0.0036 -0.01409,-0.0015 -0.01768,0.0048 l -0.204759,0.354698 c -0.0036,0.0062 -0.0015,0.01409 0.0047,0.01768 l 0.285865,0.165053 -0.285865,0.165052 c -0.0062,0.0036 -0.0083,0.01151 -0.0047,0.01772 l 0.204759,0.354652 c 0.0036,0.0062 0.01146,0.0084 0.01768,0.0048 l 0.285911,-0.165052 0,0.330105 c 0,0.0072 0.0058,0.01296 0.01296,0.01296 l 0.409563,0 c 0.0072,0 0.01291,-0.0058 0.01291,-0.01296 l 0,-0.330105 0.285911,0.165052 c 0.0062,0.0036 0.01409,0.0015 0.01768,-0.0048 l 0.204805,-0.354652 c 0.0036,-0.0062 0.0015,-0.01414 -0.0048,-0.01772 L 17.09777,18.480812 17.383636,18.31576 c 0.0062,-0.0036 0.0084,-0.01146 0.0048,-0.01768 l -0.204843,-0.354696 c -0.0036,-0.0062 -0.01146,-0.0084 -0.01768,-0.0048 l -0.285911,0.165053 0,-0.330105 c 0,-0.0072 -0.0057,-0.01296 -0.01291,-0.01296 l -0.409562,0 z"
     id="path5113" />
  <circle
     style="opacity:1;fill:#ffffff;fill-opacity:1;stroke:none;stroke-width:0.1;stroke-miterlimit:4;stroke-dasharray:none;stroke-opacity:1"
     id="path4142"
     cx="8.0654354"
     cy="20.497824"
     r="0.6408155" />
  <circle
     r="0.6408155"
     cy="18.497824"
     cx="10.63996"
     id="circle4144"
     style="opacity:1;fill:#ffffff;fill-opacity:1;stroke:none;stroke-width:0.1;stroke-miterlimit:4;stroke-dasharray:none;stroke-opacity:1" />
  <circle
     style="opacity:1;fill:#ffffff;fill-opacity:1;stroke:none;stroke-width:0.1;stroke-miterlimit:4;stroke-dasharray:none;stroke-opacity:1"
     id="circle4146"
     cx="12.065436"
     cy="20.497824"
     r="0.6408155" />
  <circle
     r="0.6408155"
     cy="18.497824"
     cx="14.63996"
     id="circle4148"
     style="opacity:1;fill:#ffffff;fill-opacity:1;stroke:none;stroke-width:0.1;stroke-miterlimit:4;stroke-dasharray:none;stroke-opacity:1" />
  <circle
     style="opacity:1;fill:#ffffff;fill-opacity:1;stroke:none;stroke-width:0.1;stroke-miterlimit:4;stroke-dasharray:none;stroke-opacity:1"
     id="circle4150"
     cx="16.065449"
     cy="20.497824"
     r="0.6408155" />
  <path
     style="opacity:1;fill:#000000;fill-opacity:0.15686275;stroke:none;stroke-width:0.1;stroke-miterlimit:4;stroke-dasharray:none;stroke-opacity:1"
     d="m 8.4587692,19.021897 c 0,-0.09453 -0.00804,-0.171875 -0.017873,-0.171875 -0.00983,0 -0.078797,0.0357 -0.1532601,0.07934 L 8.1522489,19.008707 8.0521548,18.83376 c -0.055052,-0.09622 -0.095069,-0.178943 -0.088927,-0.183829 0.00614,-0.0049 0.070932,-0.0418 0.1439793,-0.08202 0.073047,-0.04023 0.1328125,-0.08291 0.1328125,-0.09485 0,-0.01194 -0.038672,-0.0381 -0.085937,-0.05815 -0.19566,-0.08298 -0.2044549,-0.103156 -0.1148519,-0.263474 0.044442,-0.07951 0.0942,-0.152852 0.1105747,-0.162972 0.016374,-0.01012 0.079331,0.01084 0.1399044,0.04658 0.060573,0.03574 0.1233914,0.06498 0.1395965,0.06498 0.016205,0 0.029464,-0.07031 0.029464,-0.15625 l 0,-0.15625 0.203125,0 0.203125,0 0,0.15625 c 0,0.08594 0.013259,0.15625 0.029464,0.15625 0.016205,0 0.079023,-0.02924 0.1395965,-0.06498 0.060573,-0.03574 0.12353,-0.0567 0.1399044,-0.04658 0.016374,0.01012 0.066823,0.08469 0.1121079,0.165716 0.090663,0.162213 0.094372,0.153422 -0.11343,0.268834 l -0.103287,0.05736 0.1243847,0.07528 c 0.068412,0.0414 0.1374877,0.07972 0.1535023,0.08515 0.016015,0.0054 -0.016653,0.08987 -0.072595,0.18765 l -0.101712,0.177774 -0.1332761,-0.07811 c -0.073302,-0.04296 -0.1425874,-0.07811 -0.153968,-0.07811 -0.011381,0 -0.020692,0.07734 -0.020692,0.171875 l 0,0.171875 -0.203125,0 -0.203125,0 0,-0.171875 z"
     id="path4149"
     inkscape:connector-curvature="0" />
  <path
     style="opacity:1;fill:#000000;fill-opacity:0.15686275;stroke:none;stroke-width:0.1;stroke-miterlimit:4;stroke-dasharray:none;stroke-opacity:1"
     d="m 10.455178,19.088159 c -0.358116,-0.127976 -0.5263129,-0.48774 -0.385542,-0.824652 0.108182,-0.258917 0.332156,-0.396129 0.613403,-0.375785 0.54134,0.03916 0.77323,0.660524 0.389651,1.044103 -0.184388,0.184388 -0.391959,0.236938 -0.617512,0.156334 z"
     id="path4151"
     inkscape:connector-curvature="0" />
  <path
     style="opacity:1;fill:#000000;fill-opacity:0.15686275;stroke:none;stroke-width:0.1;stroke-miterlimit:4;stroke-dasharray:none;stroke-opacity:1"
     d="m 7.8098219,20.747971 c -0.193079,-0.193629 -0.3510527,-0.373626 -0.3510527,-0.399995 0,-0.08071 0.1553918,-0.293032 0.273892,-0.37423 0.093701,-0.0642 0.1493283,-0.07685 0.3381051,-0.07685 0.2054341,0 0.2366725,0.0087 0.3440177,0.09556 0.2001033,0.161957 0.2440074,0.243484 0.2562041,0.475753 0.00998,0.190081 0.0021,0.22384 -0.08336,0.356918 -0.088062,0.137135 -0.281469,0.274895 -0.3859367,0.274895 -0.022449,0 -0.1987909,-0.158423 -0.3918699,-0.352051 z"
     id="path4153"
     inkscape:connector-curvature="0" />
  <path
     style="opacity:1;fill:#000000;fill-opacity:0.15686275;stroke:none;stroke-width:0.1;stroke-miterlimit:4;stroke-dasharray:none;stroke-opacity:1"
     d="m 9.8962692,21.021897 c 0,-0.09453 -0.010547,-0.171706 -0.023437,-0.171499 -0.012891,2.07e-4 -0.083356,0.03464 -0.1565902,0.07651 l -0.1331527,0.07613 -0.046535,-0.07651 c -0.025594,-0.04208 -0.067629,-0.111167 -0.09341,-0.153531 -0.065589,-0.107777 -0.061808,-0.117297 0.078366,-0.197346 0.068618,-0.03918 0.1247594,-0.0823 0.1247594,-0.09581 0,-0.01351 -0.05625,-0.05618 -0.125,-0.09482 -0.06875,-0.03864 -0.125,-0.078 -0.125,-0.08746 0,-0.04763 0.1707951,-0.322514 0.200279,-0.322336 0.018753,1.13e-4 0.076283,0.02815 0.127846,0.06229 0.1456896,0.09649 0.171875,0.0822 0.171875,-0.09375 l 0,-0.15625 0.2031248,0 0.203125,0 0,0.15625 c 0,0.08594 0.0086,0.15625 0.01918,0.15625 0.01055,0 0.07397,-0.03079 0.140942,-0.06843 0.135509,-0.07616 0.137879,-0.07494 0.256666,0.132093 l 0.08135,0.141785 -0.139696,0.07631 c -0.07683,0.04197 -0.139696,0.08625 -0.139696,0.0984 0,0.01215 0.05625,0.05371 0.125,0.09235 0.06875,0.03864 0.12476,0.08524 0.124467,0.103562 -2.93e-4,0.01832 -0.03947,0.09943 -0.08706,0.180235 l -0.08652,0.146927 -0.134882,-0.07661 c -0.07418,-0.04214 -0.140478,-0.07662 -0.147318,-0.07662 -0.0068,0 -0.01243,0.07734 -0.01243,0.171875 l 0,0.171875 -0.203125,0 -0.2031248,0 0,-0.171875 z"
     id="path4155"
     inkscape:connector-curvature="0" />
  <path
     style="opacity:1;fill:#000000;fill-opacity:0.15686275;stroke:none;stroke-width:0.1;stroke-miterlimit:4;stroke-dasharray:none;stroke-opacity:1"
     d="m 12.458769,19.021897 c 0,-0.09453 -0.008,-0.171875 -0.01787,-0.171875 -0.0098,0 -0.0788,0.0357 -0.15326,0.07934 l -0.135387,0.07934 -0.100094,-0.174947 c -0.05505,-0.09622 -0.09507,-0.178943 -0.08893,-0.183829 0.0061,-0.0049 0.07093,-0.0418 0.14398,-0.08202 0.07305,-0.04023 0.132812,-0.08291 0.132812,-0.09485 0,-0.01194 -0.03867,-0.0381 -0.08594,-0.05815 -0.19566,-0.08298 -0.204455,-0.103156 -0.114852,-0.263474 0.04444,-0.07951 0.0942,-0.152852 0.110574,-0.162972 0.01638,-0.01012 0.07933,0.01084 0.139905,0.04658 0.06057,0.03574 0.123391,0.06498 0.139596,0.06498 0.01621,0 0.02946,-0.07031 0.02946,-0.15625 l 0,-0.15625 0.203125,0 0.203125,0 0,0.15625 c 0,0.08594 0.01326,0.15625 0.02946,0.15625 0.01621,0 0.07902,-0.02924 0.139596,-0.06498 0.06057,-0.03574 0.12353,-0.0567 0.139905,-0.04658 0.01637,0.01012 0.06682,0.08469 0.112108,0.165716 0.09066,0.162213 0.09437,0.153422 -0.11343,0.268834 l -0.103287,0.05736 0.124384,0.07528 c 0.06841,0.0414 0.137488,0.07972 0.153503,0.08515 0.01601,0.0054 -0.01665,0.08987 -0.07259,0.18765 l -0.101712,0.177774 -0.133276,-0.07811 c -0.0733,-0.04296 -0.142587,-0.07811 -0.153968,-0.07811 -0.01138,0 -0.02069,0.07734 -0.02069,0.171875 l 0,0.171875 -0.203125,0 -0.203125,0 0,-0.171875 z"
     id="path4157"
     inkscape:connector-curvature="0" />
  <path
     style="opacity:1;fill:#000000;fill-opacity:0.15686275;stroke:none;stroke-width:0.1;stroke-miterlimit:4;stroke-dasharray:none;stroke-opacity:1"
     d="m 14.455178,19.088159 c -0.358116,-0.127976 -0.526313,-0.48774 -0.385542,-0.824652 0.108182,-0.258917 0.332156,-0.396129 0.613403,-0.375785 0.54134,0.03916 0.77323,0.660524 0.389651,1.044103 -0.184388,0.184388 -0.391959,0.236938 -0.617512,0.156334 z"
     id="path4160"
     inkscape:connector-curvature="0" />
  <path
     style="opacity:1;fill:#000000;fill-opacity:0.15686275;stroke:none;stroke-width:0.1;stroke-miterlimit:4;stroke-dasharray:none;stroke-opacity:1"
     d="m 16.458769,19.021897 c 0,-0.09453 -0.008,-0.171875 -0.01787,-0.171875 -0.0098,0 -0.0788,0.0357 -0.15326,0.07934 l -0.135387,0.07934 -0.100094,-0.174947 c -0.05505,-0.09622 -0.09507,-0.178943 -0.08893,-0.183829 0.0061,-0.0049 0.07093,-0.0418 0.14398,-0.08202 0.07305,-0.04023 0.132812,-0.08291 0.132812,-0.09485 0,-0.01194 -0.03867,-0.0381 -0.08594,-0.05815 -0.19566,-0.08298 -0.204455,-0.103156 -0.114852,-0.263474 0.04444,-0.07951 0.0942,-0.152852 0.110574,-0.162972 0.01638,-0.01012 0.07933,0.01084 0.139905,0.04658 0.06057,0.03574 0.123391,0.06498 0.139596,0.06498 0.0162,0 0.02946,-0.07031 0.02946,-0.15625 l 0,-0.15625 0.203125,0 0.203125,0 0,0.15625 c 0,0.08594 0.01326,0.15625 0.02946,0.15625 0.0162,0 0.07902,-0.02924 0.139596,-0.06498 0.06057,-0.03574 0.12353,-0.0567 0.139905,-0.04658 0.01637,0.01012 0.06682,0.08469 0.112108,0.165716 0.09066,0.162213 0.09437,0.153422 -0.11343,0.268834 l -0.103287,0.05736 0.124384,0.07528 c 0.06841,0.0414 0.137488,0.07972 0.153503,0.08515 0.01601,0.0054 -0.01665,0.08987 -0.07259,0.18765 l -0.101712,0.177774 -0.133276,-0.07811 c -0.0733,-0.04296 -0.142587,-0.07811 -0.153968,-0.07811 -0.01138,0 -0.02069,0.07734 -0.02069,0.171875 l 0,0.171875 -0.203125,0 -0.203125,0 0,-0.171875 z"
     id="path4162"
     inkscape:connector-curvature="0" />
  <path
     style="opacity:1;fill:#000000;fill-opacity:0.15686275;stroke:none;stroke-width:0.1;stroke-miterlimit:4;stroke-dasharray:none;stroke-opacity:1"
     d="m 15.86534,21.091768 c -0.05998,-0.01998 -0.166608,-0.09389 -0.236952,-0.164233 -0.283424,-0.283424 -0.234564,-0.721614 0.106523,-0.955331 0.09121,-0.0625 0.148333,-0.07531 0.335855,-0.07531 0.205434,0 0.236673,0.0087 0.344018,0.09556 0.200103,0.161957 0.244007,0.243484 0.256204,0.475753 0.01,0.190081 0.0021,0.22384 -0.08336,0.356918 -0.151474,0.235883 -0.466052,0.352014 -0.722289,0.266641 z"
     id="path4164"
     inkscape:connector-curvature="0" />
  <path
     style="opacity:1;fill:#000000;fill-opacity:0.15686275;stroke:none;stroke-width:0.1;stroke-miterlimit:4;stroke-dasharray:none;stroke-opacity:1"
     d="m 13.896269,21.021897 c 0,-0.09453 -0.01055,-0.171706 -0.02344,-0.171499 -0.01289,2.07e-4 -0.08336,0.03464 -0.156591,0.07651 l -0.133152,0.07613 -0.04653,-0.07651 c -0.02559,-0.04208 -0.06763,-0.111167 -0.09341,-0.153531 -0.06559,-0.107777 -0.06181,-0.117297 0.07837,-0.197346 0.06862,-0.03918 0.124759,-0.0823 0.124759,-0.09581 0,-0.01351 -0.05625,-0.05618 -0.125,-0.09482 -0.06875,-0.03864 -0.125,-0.078 -0.125,-0.08746 0,-0.04763 0.170795,-0.322514 0.200279,-0.322336 0.01875,1.13e-4 0.07628,0.02815 0.127846,0.06229 0.14569,0.09649 0.171875,0.0822 0.171875,-0.09375 l 0,-0.15625 0.203125,0 0.203125,0 0,0.15625 c 0,0.08594 0.0086,0.15625 0.01918,0.15625 0.01055,0 0.07397,-0.03079 0.140942,-0.06843 0.135509,-0.07616 0.137879,-0.07494 0.256666,0.132093 l 0.08135,0.141785 -0.139696,0.07631 c -0.07683,0.04197 -0.139696,0.08625 -0.139696,0.0984 0,0.01215 0.05625,0.05371 0.125,0.09235 0.06875,0.03864 0.12476,0.08524 0.124467,0.103562 -2.93e-4,0.01832 -0.03947,0.09943 -0.08706,0.180235 l -0.08652,0.146927 -0.134882,-0.07661 c -0.07418,-0.04214 -0.140478,-0.07662 -0.147318,-0.07662 -0.0068,0 -0.01243,0.07734 -0.01243,0.171875 l 0,0.171875 -0.203125,0 -0.203125,0 0,-0.171875 z"
     id="path4166"
     inkscape:connector-curvature="0" />
  <path
     style="opacity:1;fill:#000000;fill-opacity:0.15686275;stroke:none;stroke-width:0.1;stroke-miterlimit:4;stroke-dasharray:none;stroke-opacity:1"
     d="m 11.86534,21.091768 c -0.05998,-0.01998 -0.166608,-0.09389 -0.236952,-0.164233 -0.283424,-0.283424 -0.234564,-0.721614 0.106523,-0.955331 0.09121,-0.0625 0.148333,-0.07531 0.335855,-0.07531 0.205434,0 0.236673,0.0087 0.344018,0.09556 0.200103,0.161957 0.244007,0.243484 0.256204,0.475753 0.01,0.190081 0.0021,0.22384 -0.08336,0.356918 -0.151474,0.235883 -0.466052,0.352014 -0.722289,0.266641 z"
     id="path4168"
     inkscape:connector-curvature="0" />
</svg>
