<?xml version="1.0" encoding="UTF-8" standalone="no"?>
<svg
   xmlns:dc="http://purl.org/dc/elements/1.1/"
   xmlns:cc="http://creativecommons.org/ns#"
   xmlns:rdf="http://www.w3.org/1999/02/22-rdf-syntax-ns#"
   xmlns:svg="http://www.w3.org/2000/svg"
   xmlns="http://www.w3.org/2000/svg"
   xmlns:sodipodi="http://sodipodi.sourceforge.net/DTD/sodipodi-0.dtd"
   xmlns:inkscape="http://www.inkscape.org/namespaces/inkscape"
   id="svg2"
   viewBox="0 0 24 24"
   height="24"
   width="24"
   version="1.1"
   inkscape:version="0.91 r13725"
   sodipodi:docname="weather_wind.svg">
  <sodipodi:namedview
     pagecolor="#ffffff"
     bordercolor="#666666"
     borderopacity="1"
     objecttolerance="10"
     gridtolerance="10"
     guidetolerance="10"
     inkscape:pageopacity="0"
     inkscape:pageshadow="2"
     inkscape:window-width="1864"
     inkscape:window-height="1012"
     id="namedview6"
     showgrid="false"
     inkscape:zoom="22.627417"
     inkscape:cx="-2.6974096"
     inkscape:cy="9.2259269"
     inkscape:window-x="-5"
     inkscape:window-y="26"
     inkscape:window-maximized="0"
     inkscape:current-layer="svg2" />
  <metadata
     id="metadata10">
    <rdf:RDF>
      <cc:Work
         rdf:about="">
        <dc:format>image/svg+xml</dc:format>
        <dc:type
           rdf:resource="http://purl.org/dc/dcmitype/StillImage" />
        <dc:title></dc:title>
      </cc:Work>
    </rdf:RDF>
  </metadata>
  <defs
     id="defs8" />
  <path
     style="fill:#e0e0e0;fill-opacity:1;fill-rule:evenodd;stroke:none;stroke-width:1px;stroke-linecap:butt;stroke-linejoin:miter;stroke-opacity:1"
     d="M 19.889629,7.283195 C 19.491901,5.2711582 17.719671,3.7562816 15.590655,3.7562816 c -1.690345,0 -3.15843,0.9592269 -3.889548,2.3571246 -1.7605316,0.1930151 -3.1291846,1.6786473 -3.1291846,3.491819 a 3.5093666,3.5093666 0 0 0 3.5093656,3.5093668 l 7.603628,0 a 2.9244721,2.9244721 0 0 0 2.924472,-2.924472 c 0,-1.5441207 -1.199034,-2.7957954 -2.719759,-2.906925 z"
     id="path4288"
     inkscape:connector-curvature="0" />
  <path
     style="fill:#bdbdbd;fill-opacity:1;fill-rule:evenodd;stroke:none;stroke-width:1px;stroke-linecap:butt;stroke-linejoin:miter;stroke-opacity:1"
     d="M 18.708839,10.711096 C 18.081964,7.5398456 15.288683,5.1521893 11.933058,5.1521893 c -2.6642184,0 -4.9781247,1.511875 -6.1304684,3.7151563 C 3.0277458,9.1715643 0.87055826,11.513127 0.87055826,14.370939 a 5.53125,5.53125 0 0 0 5.53125004,5.53125 l 11.9843747,0 a 4.609375,4.609375 0 0 0 4.609375,-4.609375 c 0,-2.43375 -1.889844,-4.406563 -4.286719,-4.581718 z"
     id="path4159"
     inkscape:connector-curvature="0" />
  <path
     style="opacity:1;fill:#fafafa;fill-opacity:1;stroke:none;stroke-width:0.1;stroke-miterlimit:4;stroke-dasharray:none;stroke-opacity:1"
     d="m 11.995074,15.389221 a 0.42768545,0.42768545 0 0 1 -0.427686,-0.427685 0.42768545,0.42768545 0 0 1 0.427686,-0.427685 l 3.421484,0 a 0.85537088,0.85537088 0 0 0 0.85537,-0.855371 0.85537088,0.85537088 0 0 0 -0.85537,-0.855372 c -0.235227,0 -0.449071,0.09409 -0.603038,0.252335 -0.166796,0.175351 -0.440516,0.175351 -0.607312,0 -0.166798,-0.166798 -0.166798,-0.440516 0,-0.607313 0.31221,-0.307934 0.739896,-0.500392 1.21035,-0.500392 a 1.7107418,1.7107418 0 0 1 1.710741,1.710742 1.7107418,1.7107418 0 0 1 -1.710741,1.710741 l -3.421484,0 m 6.415281,0.855372 a 0.42768545,0.42768545 0 0 0 0.427685,-0.427686 0.42768545,0.42768545 0 0 0 -0.427685,-0.427686 c -0.119752,0 -0.226673,0.04705 -0.303656,0.124029 -0.166798,0.166798 -0.43624,0.166798 -0.603037,0 -0.16252,-0.166797 -0.16252,-0.436238 0,-0.603036 0.23095,-0.230951 0.551714,-0.376363 0.906693,-0.376363 a 1.2830564,1.2830564 0 0 1 1.283057,1.283056 1.2830564,1.2830564 0 0 1 -1.283057,1.283056 l -5.987596,0 a 0.42768545,0.42768545 0 0 1 -0.427685,-0.427685 0.42768545,0.42768545 0 0 1 0.427685,-0.427685 l 5.987596,0 m -0.427685,2.566112 -5.987596,0 a 0.42768545,0.42768545 0 0 1 -0.427686,-0.427685 0.42768545,0.42768545 0 0 1 0.427686,-0.427686 l 5.987596,0 a 1.2830564,1.2830564 0 0 1 1.283056,1.283056 1.2830564,1.2830564 0 0 1 -1.283056,1.283057 c -0.354979,0 -0.675743,-0.145413 -0.906694,-0.376363 -0.162519,-0.166798 -0.162519,-0.436239 0,-0.603037 0.166798,-0.166797 0.43624,-0.166797 0.603037,0 0.07698,0.07698 0.183905,0.124029 0.303657,0.124029 A 0.42768545,0.42768545 0 0 0 18.410355,19.23839 0.42768545,0.42768545 0 0 0 17.98267,18.810705 Z"
     id="path4294"
     inkscape:connector-curvature="0" />
  <path
     style="opacity:1;fill:#000000;fill-opacity:0.15686275;stroke:none;stroke-width:0.1;stroke-miterlimit:4;stroke-dasharray:none;stroke-opacity:1"
     d="m 19.134861,19.828101 c 0,-0.0032 0.01663,-0.04366 0.03695,-0.08984 0.07162,-0.162785 0.09478,-0.287884 0.09362,-0.50585 -8.2e-4,-0.154652 -0.0089,-0.231849 -0.03375,-0.323489 -0.09931,-0.365908 -0.344351,-0.662019 -0.682757,-0.825058 -0.299684,-0.144382 -0.02429,-0.13144 -2.90625,-0.136584 l -2.546875,-0.0045 -0.417969,-0.417552 c -0.229883,-0.229655 -0.417969,-0.421118 -0.41797,-0.425474 0,-0.0044 1.42554,-0.0061 3.167867,-0.0039 3.13416,0.004 3.169198,0.0037 3.292969,-0.02753 0.490763,-0.123893 0.853917,-0.504187 0.954026,-0.999054 0.0524,-0.259033 0.01029,-0.590261 -0.103779,-0.816224 -0.02613,-0.05176 -0.04324,-0.09836 -0.03803,-0.103572 0.0052,-0.0052 0.613409,0.594439 1.351556,1.332549 l 1.342086,1.342018 -0.07648,0.110439 c -0.328289,0.474081 -0.829133,0.950568 -1.319031,1.254883 -0.459568,0.285475 -0.983235,0.496897 -1.503909,0.607179 -0.188733,0.03997 -0.192274,0.04056 -0.192274,0.03157 z"
     id="path4168"
     inkscape:connector-curvature="0" />
  <path
     style="opacity:1;fill:#000000;fill-opacity:0.15686275;stroke:none;stroke-width:0.1;stroke-miterlimit:4;stroke-dasharray:none;stroke-opacity:1"
     d="m 12.34602,19.341358 c -0.306587,-0.306631 -0.554681,-0.56026 -0.551321,-0.56362 0.0034,-0.0034 0.02552,0.0027 0.04924,0.01337 0.04077,0.01842 0.212176,0.01978 3.136721,0.02501 l 3.093592,0.0055 0.06349,0.02564 c 0.08869,0.03581 0.17594,0.118756 0.220741,0.209838 0.03356,0.06823 0.03617,0.08153 0.03617,0.184198 0,0.100077 -0.0031,0.116978 -0.03248,0.176805 -0.04137,0.08426 -0.115424,0.158313 -0.199682,0.199682 -0.06067,0.02979 -0.07577,0.03245 -0.18216,0.03211 -0.139086,-4.36e-4 -0.177435,-0.01486 -0.292786,-0.110126 -0.120291,-0.09935 -0.176005,-0.121206 -0.30936,-0.121383 -0.101218,-1.34e-4 -0.116509,0.0027 -0.182301,0.03438 -0.144777,0.06961 -0.231617,0.199242 -0.240901,0.359611 l -0.005,0.08647 -2.023267,0 -2.023267,0 -0.557429,-0.557512 z"
     id="path4170"
     inkscape:connector-curvature="0" />
  <path
     style="opacity:1;fill:#000000;fill-opacity:0.15686275;stroke:none;stroke-width:0.1;stroke-miterlimit:4;stroke-dasharray:none;stroke-opacity:1"
     d="m 12.231174,15.801852 c -0.239762,-0.239831 -0.433196,-0.43879 -0.429854,-0.442132 0.0033,-0.0033 0.02798,0.0027 0.05476,0.01338 0.04579,0.0183 0.157827,0.01945 1.888262,0.01945 1.688765,0 1.848199,-0.0016 1.944675,-0.01893 0.378948,-0.06826 0.678228,-0.222275 0.939363,-0.48341 0.21468,-0.21468 0.352116,-0.446529 0.435727,-0.735054 0.04643,-0.160237 0.06421,-0.292902 0.06438,-0.480654 2.95e-4,-0.315297 -0.06956,-0.580751 -0.224573,-0.853387 -0.03098,-0.05449 -0.05332,-0.102078 -0.04965,-0.105752 0.0037,-0.0037 0.422867,0.410043 0.931539,0.919371 0.738793,0.739744 0.918191,0.924803 0.891714,0.919853 -0.421272,-0.07876 -0.834256,0.03461 -1.132873,0.310975 -0.06526,0.06039 -0.09631,0.09923 -0.123492,0.154447 -0.03408,0.06922 -0.03631,0.08092 -0.03631,0.190008 0,0.107292 0.0026,0.121772 0.03434,0.188058 0.04348,0.09092 0.111596,0.158972 0.2032,0.203015 0.06574,0.03161 0.08115,0.03452 0.182301,0.03445 0.133546,-9.9e-5 0.190845,-0.02168 0.302642,-0.113996 0.116391,-0.09611 0.172859,-0.117943 0.305028,-0.117941 0.09978,3e-6 0.116883,0.0031 0.176536,0.03238 0.261534,0.128198 0.321687,0.468701 0.119167,0.674554 -0.03002,0.03052 -0.08349,0.06815 -0.124451,0.0876 l -0.07182,0.0341 -2.92234,0.0028 -2.92234,0.0028 -0.435931,-0.436055 z"
     id="path4172"
     inkscape:connector-curvature="0" />
  <path
     style="opacity:1;fill:#000000;fill-opacity:0.15686275;stroke:none;stroke-width:0.1;stroke-miterlimit:4;stroke-dasharray:none;stroke-opacity:1"
     d="m 14.968414,13.83513 c -0.365041,-0.36506 -0.661551,-0.665906 -0.658912,-0.668545 0.0026,-0.0026 0.0155,7.33e-4 0.02858,0.0075 0.03618,0.01871 0.116576,0.03549 0.17065,0.03562 0.118212,2.82e-4 0.208377,-0.03891 0.31446,-0.136672 0.04026,-0.0371 0.09413,-0.08167 0.119723,-0.09905 0.290215,-0.197081 0.668438,-0.193628 0.961225,0.0088 0.06869,0.04748 0.169577,0.149478 0.21593,0.218294 0.1678,0.249123 0.193403,0.566762 0.06722,0.833947 -0.08061,0.170687 -0.212384,0.309745 -0.373168,0.393799 -0.06117,0.03198 -0.154903,0.07009 -0.172386,0.07009 -0.0053,0 -0.308275,-0.298685 -0.673316,-0.663745 z"
     id="path4174"
     inkscape:connector-curvature="0" />
  <path
     style="opacity:1;fill:#000000;fill-opacity:0.15686275;stroke:none;stroke-width:0.1;stroke-miterlimit:4;stroke-dasharray:none;stroke-opacity:1"
     d="m 21.274681,11.704682 c -0.357147,-0.298388 -0.926002,-0.6081 -1.416255,-0.771078 -0.308398,-0.102523 -0.723334,-0.192266 -1.004329,-0.217219 -0.150693,-0.01338 -0.131784,0.01051 -0.188531,-0.238245 C 18.523999,9.8575653 18.261822,9.1896871 17.938175,8.6251604 17.828199,8.4333325 17.590292,8.0714813 17.472462,7.9168203 c -0.08541,-0.112103 -0.101459,-0.1418049 -0.07664,-0.1418049 0.01532,0 3.972633,3.9573556 3.972633,3.9726796 0,0.02397 -0.03016,0.01014 -0.09377,-0.04301 z"
     id="path4176"
     inkscape:connector-curvature="0" />
</svg>
