<?xml version="1.0" encoding="UTF-8" standalone="no"?>
<svg
   xmlns:dc="http://purl.org/dc/elements/1.1/"
   xmlns:cc="http://creativecommons.org/ns#"
   xmlns:rdf="http://www.w3.org/1999/02/22-rdf-syntax-ns#"
   xmlns:svg="http://www.w3.org/2000/svg"
   xmlns="http://www.w3.org/2000/svg"
   xmlns:sodipodi="http://sodipodi.sourceforge.net/DTD/sodipodi-0.dtd"
   xmlns:inkscape="http://www.inkscape.org/namespaces/inkscape"
   id="svg2"
   viewBox="0 0 24 24"
   height="24"
   width="24"
   version="1.1"
   inkscape:version="0.91 r13725"
   sodipodi:docname="weather_mostly_cloudy_night.svg">
  <sodipodi:namedview
     pagecolor="#ffffff"
     bordercolor="#666666"
     borderopacity="1"
     objecttolerance="10"
     gridtolerance="10"
     guidetolerance="10"
     inkscape:pageopacity="0"
     inkscape:pageshadow="2"
     inkscape:window-width="1920"
     inkscape:window-height="1022"
     id="namedview6"
     showgrid="false"
     inkscape:zoom="22.627417"
     inkscape:cx="8.8751635"
     inkscape:cy="7.3959905"
     inkscape:window-x="0"
     inkscape:window-y="26"
     inkscape:window-maximized="1"
     inkscape:current-layer="svg2" />
  <metadata
     id="metadata10">
    <rdf:RDF>
      <cc:Work
         rdf:about="">
        <dc:format>image/svg+xml</dc:format>
        <dc:type
           rdf:resource="http://purl.org/dc/dcmitype/StillImage" />
        <dc:title />
      </cc:Work>
    </rdf:RDF>
  </metadata>
  <defs
     id="defs8" />
  <g
     id="g4227"
     transform="matrix(0.83625731,0,0,0.83625731,24.065541,-3.2255426)">
    <circle
       r="5.34375"
       cy="12.09375"
       cx="-20.84375"
       id="path4195"
       style="opacity:1;fill:#e0e0e0;fill-opacity:1;stroke:none;stroke-width:0.69999999;stroke-miterlimit:4;stroke-dasharray:none;stroke-opacity:1" />
    <circle
       style="opacity:1;fill:#757575;fill-opacity:1;stroke:none;stroke-width:0.69999999;stroke-miterlimit:4;stroke-dasharray:none;stroke-opacity:1"
       id="circle4203"
       cx="-18.125"
       cy="13.59375"
       r="0.546875" />
    <circle
       r="0.65625"
       cy="9.109375"
       cx="-21.887024"
       id="path4197"
       style="opacity:1;fill:#fafafa;fill-opacity:1;stroke:none;stroke-width:0.69999999;stroke-miterlimit:4;stroke-dasharray:none;stroke-opacity:1" />
    <circle
       style="opacity:1;fill:#fafafa;fill-opacity:1;stroke:none;stroke-width:0.69999999;stroke-miterlimit:4;stroke-dasharray:none;stroke-opacity:1"
       id="circle4199"
       cx="-18.610485"
       cy="10.503792"
       r="0.79151332" />
    <circle
       r="0.546875"
       cy="14.546875"
       cx="-21.09375"
       id="circle4201"
       style="opacity:1;fill:#fafafa;fill-opacity:1;stroke:none;stroke-width:0.69999999;stroke-miterlimit:4;stroke-dasharray:none;stroke-opacity:1" />
    <circle
       r="0.60211772"
       cy="11.803672"
       cx="-21.277134"
       id="circle4205"
       style="opacity:1;fill:#757575;fill-opacity:1;stroke:none;stroke-width:0.69999999;stroke-miterlimit:4;stroke-dasharray:none;stroke-opacity:1" />
    <circle
       r="0.71875"
       cy="13.265625"
       cx="-23.859375"
       id="circle4207"
       style="opacity:1;fill:#757575;fill-opacity:1;stroke:none;stroke-width:0.69999999;stroke-miterlimit:4;stroke-dasharray:none;stroke-opacity:1" />
    <path
       inkscape:connector-curvature="0"
       id="path4223"
       d="m -19.407728,12.513983 c -1.543222,-1.543231 -2.803394,-2.8083372 -2.800384,-2.8113477 0.003,-0.00301 0.05003,0.010137 0.104497,0.029216 0.08796,0.030813 0.112604,0.034682 0.220557,0.034619 0.102792,-5.96e-5 0.13403,-0.00451 0.20257,-0.02889 0.114431,-0.040696 0.192072,-0.090797 0.272543,-0.1758683 0.189681,-0.2005261 0.235233,-0.5081616 0.110859,-0.7486754 -0.01023,-0.019784 -0.01555,-0.039026 -0.01181,-0.042759 0.0037,-0.00373 0.436747,0.4230646 0.962253,0.9484393 0.825467,0.8252601 0.957085,0.9612401 0.967362,0.9994211 0.05017,0.18637 0.188695,0.365384 0.365754,0.472644 0.223644,0.13548 0.531976,0.142088 0.774975,0.01661 0.130952,-0.06762 0.272889,-0.211453 0.335615,-0.340096 0.06627,-0.135918 0.08438,-0.214145 0.08438,-0.364602 0,-0.135958 -0.0161,-0.216608 -0.0656,-0.328522 -0.01498,-0.03387 -0.02448,-0.06433 -0.02111,-0.06769 0.0034,-0.0034 0.540389,0.528135 1.193386,1.181111 l 1.187268,1.187229 0,0.05182 c 0,0.08828 -0.04349,0.402916 -0.08371,0.605609 -0.147407,0.742928 -0.44188,1.427256 -0.880733,2.046743 -0.05489,0.07748 -0.102722,0.140869 -0.106302,0.140869 -0.0036,0 -1.269146,-1.262644 -2.812367,-2.805874 z"
       style="opacity:1;fill:#000000;fill-opacity:0.15686275;stroke:none;stroke-width:0.1;stroke-miterlimit:4;stroke-dasharray:none;stroke-opacity:1" />
    <path
       inkscape:connector-curvature="0"
       id="path4225"
       d="m -20.291618,16.115801 c -0.583092,-0.583116 -1.057543,-1.062836 -1.054334,-1.066044 0.0032,-0.0032 0.03499,0.0044 0.07062,0.01694 0.200407,0.07044 0.417397,0.01997 0.569921,-0.132557 0.152508,-0.152507 0.201713,-0.366201 0.131389,-0.570603 -0.01207,-0.03507 -0.01924,-0.06647 -0.01594,-0.06977 0.0033,-0.0033 0.55021,0.538186 1.215352,1.203307 l 1.209348,1.20931 -0.02484,0.01934 c -0.04366,0.03399 -0.505789,0.258791 -0.65461,0.318435 -0.147691,0.05919 -0.354398,0.131859 -0.375081,0.131859 -0.0064,0 -0.488736,-0.477095 -1.071828,-1.060211 z"
       style="opacity:1;fill:#000000;fill-opacity:0.15686275;stroke:none;stroke-width:0.1;stroke-miterlimit:4;stroke-dasharray:none;stroke-opacity:1" />
  </g>
  <path
     style="fill:#fafafa;fill-opacity:1;fill-rule:evenodd;stroke:none;stroke-width:1px;stroke-linecap:butt;stroke-linejoin:miter;stroke-opacity:1"
     d="M 19.150781,9.8714063 C 18.523906,6.7001563 15.730625,4.3125 12.375,4.3125 9.7107813,4.3125 7.396875,5.824375 6.2445313,8.0276563 3.4696875,8.331875 1.3125,10.673438 1.3125,13.53125 a 5.53125,5.53125 0 0 0 5.53125,5.53125 l 11.984375,0 A 4.609375,4.609375 0 0 0 23.4375,14.453125 c 0,-2.43375 -1.889844,-4.406563 -4.286719,-4.5817187 z"
     id="path4159"
     inkscape:connector-curvature="0" />
  <path
     inkscape:connector-curvature="0"
     id="path4694"
     d="M 20.769726,7.4605078 C 20.425299,5.718112 18.890573,4.40625 17.046875,4.40625 c -1.463815,0 -2.735156,0.8306771 -3.368294,2.041237 -1.524597,0.1671484 -2.709831,1.4536851 -2.709831,3.0238672 a 3.0390625,3.0390625 0 0 0 3.039063,3.0390628 l 6.584635,0 A 2.5325521,2.5325521 0 0 0 23.125,9.9778646 c 0,-1.3371875 -1.038346,-2.4211201 -2.355274,-2.5173568 z"
     style="fill:#e0e0e0;fill-opacity:1;fill-rule:evenodd;stroke:none;stroke-width:1px;stroke-linecap:butt;stroke-linejoin:miter;stroke-opacity:1" />
  <path
     style="opacity:1;fill:#000000;fill-opacity:0.15686275;stroke:none;stroke-width:0.0015625;stroke-miterlimit:4;stroke-dasharray:none;stroke-opacity:1"
     d="m 15.773731,15.519302 c -1.933232,-1.933377 -3.510322,-3.519876 -3.504644,-3.525554 0.0057,-0.0057 0.0565,0.01884 0.112938,0.05448 0.325127,0.205336 0.690683,0.346676 1.101986,0.426075 l 0.179688,0.03469 3.5,0.0056 c 2.489855,0.004 3.549605,6.12e-4 3.671875,-0.01173 0.346783,-0.03501 0.560268,-0.0963 0.875,-0.251227 0.246384,-0.12128 0.4323,-0.248882 0.63505,-0.435863 0.07602,-0.0701 0.145188,-0.123152 0.153713,-0.117883 0.0085,0.0053 0.06016,0.07426 0.114752,0.15332 0.440218,0.637538 0.703334,1.346788 0.792382,2.135927 0.02456,0.2177 0.02018,0.754286 -0.0081,0.991189 -0.124628,1.044048 -0.589994,2.001544 -1.329652,2.735771 -0.736601,0.731193 -1.648078,1.172251 -2.70971,1.311212 l -0.07031,0.0092 -3.514968,-3.515231 z"
     id="path4700"
     inkscape:connector-curvature="0" />
</svg>
